<svg width="121" height="75" viewBox="0 0 121 75" fill="none" xmlns="http://www.w3.org/2000/svg">
<path d="M12.8561 56.1527C13.7194 56.1527 14.6109 55.7411 15.5304 54.9179C16.0645 56.2009 16.2974 57.7388 16.2331 59.5297C16.1608 61.676 15.5625 63.475 14.4422 64.9266C13.2877 66.3802 11.6534 67.0909 9.53928 67.0568C5.66633 67.0568 3.61843 64.7941 3.39155 60.2686C3.31927 59.2426 3.33534 58.1223 3.43974 56.9036C3.53611 55.709 3.65055 54.685 3.77905 53.8297C3.91558 52.9664 4.11836 51.824 4.38338 50.4045C4.61026 49.0151 4.77489 47.9751 4.8813 47.2805C5.53382 42.3273 5.84502 38.5749 5.8129 36.025C5.71653 30.9334 4.44562 26.6689 2.00018 23.2316C3.15464 22.1113 4.75482 21.5491 6.80473 21.5491C8.45911 21.5491 9.71797 21.9808 10.5813 22.8441C11.4366 23.7336 11.8321 24.9864 11.7679 26.6087H11.9124C12.6714 25.1571 13.9262 23.9504 15.677 22.9907C17.3956 22.031 19.1142 21.5491 20.8329 21.5491C23.8746 21.5491 26.1574 22.4587 27.6833 24.2737C29.167 26.0967 29.8617 28.5461 29.7653 31.62C29.6589 33.959 29.0305 36.2077 27.8761 38.362C26.7216 40.5083 25.2339 42.243 23.4108 43.5661C20.078 46.0417 15.9139 47.3989 10.9206 47.6318H10.5331C10.5331 47.8266 10.513 48.1358 10.4729 48.5634C10.4066 48.9991 10.3745 49.3665 10.3745 49.6657C10.3424 49.9568 10.3424 50.5169 10.3745 51.3482C10.4809 52.7676 10.7299 53.9261 11.1254 54.8216C11.4888 55.7411 12.065 56.1848 12.8561 56.1527ZM18.6545 41.2291C19.6463 40.5043 20.5056 39.5948 21.2324 38.5066C21.9572 37.4164 22.3567 36.4246 22.429 35.5291C22.6238 33.3828 21.632 32.3107 19.4535 32.3107C17.8313 32.3107 16.4098 32.9873 15.1931 34.3425C13.9342 35.6977 13.0227 37.1875 12.4565 38.8098C11.8683 40.422 11.4727 42.0563 11.27 43.7107C14.0467 43.5822 16.5082 42.755 18.6545 41.2291ZM32.2891 43.7589C32.1927 39.7253 30.9017 35.9889 28.4161 32.5516C30.4018 31.4293 32.5682 30.8691 34.9152 30.8691C38.1919 30.8691 39.8463 32.0436 39.8784 34.3907C39.8784 34.6899 39.8623 35.0372 39.8302 35.4327C39.7579 35.8283 39.6896 36.1756 39.6234 36.4727C39.5591 36.804 39.4628 37.2517 39.3343 37.8159C39.1636 38.3741 39.0472 38.8499 38.9829 39.2454C37.7241 44.6985 37.0776 48.7019 37.0454 51.2518C37.0454 54.9139 37.8726 56.745 39.527 56.745C40.3502 56.745 41.2416 56.3173 42.2013 55.462C42.7354 56.7129 42.9683 58.032 42.9041 59.4213C42.8318 61.6078 42.2335 63.4268 41.1131 64.8784C39.9587 66.3641 38.3244 67.0909 36.2102 67.0568C32.1767 67.0247 30.1267 64.778 30.0625 60.3168C30.0304 58.7989 30.442 56.1888 31.2973 52.4865C32.0562 49.2179 32.3875 46.3087 32.2891 43.7589ZM28.1752 21.9005C28.1752 20.1176 28.7675 18.6981 29.9541 17.6401C31.1487 16.6161 32.785 16.1041 34.867 16.1041C36.9812 16.1041 38.6155 16.6161 39.77 17.6401C40.9304 18.666 41.5127 20.0855 41.5127 21.9005C41.5127 23.6834 40.9304 25.0888 39.77 26.1128C38.6155 27.1367 36.9812 27.6507 34.867 27.6507C32.785 27.6507 31.1487 27.1367 29.9541 26.1128C28.7675 25.0888 28.1752 23.6834 28.1752 21.9005ZM42.7535 61.9511C45.988 59.7707 48.7807 56.8634 51.1278 53.2234C53.4769 49.5934 55.7557 45.3329 57.9662 40.4421C57.0386 39.91 55.7998 39.645 54.2498 39.645C52.5633 39.7414 51.3908 40.5685 50.7283 42.1246C50.0677 43.7147 49.8689 45.3169 50.136 46.9311C48.4173 46.5356 47.046 45.6281 46.0201 44.2066C44.9961 42.8192 44.4842 41.2492 44.4842 39.4984C44.4842 37.2477 45.1126 35.2982 46.3714 33.6539C47.5901 32.0316 49.2767 31.2205 51.431 31.2205C52.8183 31.2205 54.2378 31.5678 55.6914 32.2605C57.1109 32.9552 58.3497 33.8948 59.4057 35.0814C60.6646 32.5074 62.335 31.2205 64.4171 31.2205C65.5394 31.2205 66.6116 31.6843 67.6375 32.6118C68.6615 33.5635 69.4726 34.8344 70.0689 36.4246C68.278 37.2477 66.6557 38.5026 65.2041 40.1891C63.7525 41.8756 62.6141 43.546 61.791 45.2004C60.9276 46.8849 59.8495 49.0152 58.5585 51.5891C57.2354 54.2052 56.0468 56.3555 54.9887 58.04C55.7557 58.566 56.8318 58.827 58.2212 58.827C59.9719 58.827 61.2268 58.2187 61.9837 57C63.106 55.4098 63.353 53.906 62.7225 52.4865C64.644 52.8158 66.1959 53.5266 67.3825 54.6148C68.5771 55.705 69.2698 56.9277 69.4646 58.2829C69.6332 59.6381 69.5047 60.9773 69.0771 62.3004C68.6414 63.6235 67.7981 64.7298 66.5473 65.6172C65.2563 66.5448 63.7525 67.0247 62.0339 67.0568C58.4661 66.9925 55.5248 65.6534 53.2098 63.0393C51.9189 65.7176 50.3327 67.0568 48.4535 67.0568C47.291 67.0568 46.1988 66.597 45.1728 65.6775C44.1489 64.782 43.3417 63.5392 42.7535 61.9511ZM68.4808 61.9511C71.7173 59.7707 74.508 56.8634 76.8571 53.2234C79.2042 49.5934 81.485 45.3329 83.6955 40.4421C82.7679 39.91 81.5291 39.645 79.9791 39.645C78.2926 39.7414 77.1181 40.5685 76.4576 42.1246C75.795 43.7147 75.5982 45.3169 75.8633 46.9311C74.1446 46.5356 72.7733 45.6281 71.7494 44.2066C70.7234 42.8192 70.2114 41.2492 70.2114 39.4984C70.2114 37.2477 70.8419 35.2982 72.1007 33.6539C73.3194 32.0316 75.0039 31.2205 77.1583 31.2205C78.5476 31.2205 79.9671 31.5678 81.4187 32.2605C82.8402 32.9552 84.079 33.8948 85.135 35.0814C86.3939 32.5074 88.0644 31.2205 90.1464 31.2205C91.2667 31.2205 92.3409 31.6843 93.3648 32.6118C94.3908 33.5635 95.1999 34.8344 95.7982 36.4246C94.0073 37.2477 92.385 38.5026 90.9334 40.1891C89.4798 41.8756 88.3434 43.546 87.5203 45.2004C86.6569 46.8849 85.5788 49.0152 84.2878 51.5891C82.9647 54.2052 81.7741 56.3555 80.718 58.04C81.485 58.566 82.5611 58.827 83.9485 58.827C85.6992 58.827 86.9541 58.2187 87.713 57C88.8353 55.4098 89.0803 53.906 88.4518 52.4865C90.3713 52.8158 91.9253 53.5266 93.1118 54.6148C94.3044 55.705 94.9991 56.9277 95.1919 58.2829C95.3625 59.6381 95.234 60.9773 94.8064 62.3004C94.3707 63.6235 93.5274 64.7298 92.2766 65.6172C90.9856 66.5448 89.4798 67.0247 87.7612 67.0568C84.1954 66.9925 81.2541 65.6534 78.9391 63.0393C77.6482 65.7176 76.062 67.0568 74.1828 67.0568C73.0203 67.0568 71.9261 66.597 70.9021 65.6775C69.8782 64.782 69.0711 63.5392 68.4808 61.9511ZM109.134 61.5636C107.843 65.1615 105.825 66.9925 103.082 67.0568C100.039 67.1632 97.7758 65.1494 96.2921 61.0175C94.7983 56.8875 94.4349 51.9926 95.2019 46.3368C95.9608 40.5204 97.6634 36.2077 100.31 33.3989C101.86 31.7445 103.626 30.8852 105.61 30.8209H106.058C106.947 30.8209 107.752 30.9213 108.479 31.1241C109.206 31.3168 109.834 31.5638 110.368 31.8609C110.901 32.1601 111.364 32.5918 111.76 33.1559C112.155 33.7462 112.485 34.2903 112.752 34.7902C113.011 35.3163 113.24 36.025 113.442 36.9205C113.603 37.8079 113.735 38.5829 113.842 39.2454C113.906 39.9381 113.97 40.8496 114.035 41.98C114.067 43.1023 114.083 44.058 114.083 44.8491C114.083 45.6482 114.099 46.7042 114.131 48.0193C114.131 49.3424 114.131 50.4206 114.131 51.2518C114.195 54.9139 115.022 56.745 116.613 56.745C117.444 56.745 118.335 56.3173 119.287 55.462C119.821 56.7129 120.054 58.032 119.99 59.4213C119.917 61.7041 119.421 63.5553 118.5 64.9768C117.572 66.3962 116.068 67.0909 113.986 67.0568C112.728 67.0568 111.671 66.5609 110.816 65.569C109.953 64.5772 109.455 63.2421 109.326 61.5636H109.134ZM107.148 41.2291C105.729 41.2291 104.307 41.9559 102.888 43.4075C101.46 44.9013 100.35 46.6038 99.5587 48.5152C98.7697 50.4688 98.4223 52.1553 98.5187 53.5747C98.6472 55.6568 99.5226 56.7129 101.145 56.745C102.307 56.745 103.598 56.0523 105.018 54.665C106.437 53.3077 107.608 51.6433 108.527 49.6657C109.455 47.68 109.871 45.9252 109.774 44.4013C109.638 42.2872 108.762 41.2291 107.148 41.2291Z" stroke="#710000" stroke-width="1.67317"/>
<path d="M12.8579 56.1527C13.7132 56.1527 14.6047 55.7411 15.5322 54.9159C16.0623 56.2069 16.2952 57.7428 16.2309 59.5257C16.1607 61.674 15.5644 63.475 14.44 64.9306C13.2836 66.3822 11.6472 67.0909 9.53308 67.0588C5.66615 67.0588 3.61825 64.7981 3.38936 60.2726C3.31909 59.2446 3.33515 58.1203 3.43755 56.8996C3.53794 55.711 3.65439 54.687 3.78288 53.8237C3.91539 52.9684 4.11416 51.828 4.37718 50.4025C4.61208 49.0172 4.77873 47.9751 4.8751 47.2784C5.53364 42.3213 5.84685 38.5708 5.81473 36.027C5.71835 30.9354 4.44544 26.6709 2 23.2336C3.15646 22.1093 4.75865 21.5471 6.81057 21.5471C8.45893 21.5471 9.71378 21.9788 10.5771 22.8401C11.4324 23.7356 11.8299 24.9904 11.7657 26.6066H11.9183C12.6772 25.151 13.9341 23.9444 15.6848 22.9847C17.4035 22.027 19.1221 21.5471 20.8407 21.5471C23.8805 21.5471 26.1613 22.4586 27.6831 24.2777C29.1649 26.0927 29.8595 28.5401 29.7632 31.618C29.6608 33.963 29.0324 36.2097 27.8759 38.356C26.7194 40.5043 25.2337 42.239 23.4187 43.5601C20.0778 46.0397 15.9117 47.3949 10.9224 47.6238H10.5289C10.5289 47.8225 10.5129 48.1378 10.4807 48.5714C10.4105 49.0011 10.3763 49.3645 10.3763 49.6637C10.3442 49.9588 10.3442 50.519 10.3763 51.3421C10.4767 52.7676 10.7257 53.9261 11.1232 54.8196C11.4866 55.7411 12.0649 56.1848 12.8579 56.1527ZM18.6563 41.2311C19.6461 40.5043 20.5054 39.5968 21.2342 38.5086C21.9611 37.4164 22.3586 36.4245 22.4228 35.5291C22.6196 33.3828 21.6298 32.3087 19.4514 32.3087C17.8291 32.3087 16.4076 32.9873 15.1869 34.3405C13.928 35.6957 13.0205 37.1835 12.4644 38.8057C11.8641 40.424 11.4645 42.0583 11.2678 43.7127C14.0465 43.5802 16.508 42.753 18.6563 41.2311Z" fill="#E12C2C"/>
<path d="M32.2866 43.7608C32.1902 39.7292 30.9013 35.9948 28.4237 32.5575C30.4033 31.4332 32.5697 30.871 34.9208 30.871C38.1914 30.871 39.8438 32.0436 39.8759 34.3886C39.8759 34.6898 39.8598 35.0371 39.8277 35.4326C39.7575 35.8302 39.6912 36.1775 39.627 36.4767C39.5627 36.8039 39.4623 37.2477 39.3298 37.8098C39.1632 38.372 39.0487 38.8518 38.9845 39.2474C37.7256 44.7044 37.0811 48.7039 37.049 51.2457C37.049 54.9138 37.8762 56.7469 39.5306 56.7469C40.3538 56.7469 41.2452 56.3193 42.2049 55.462C42.7349 56.7148 42.9638 58.0379 42.8956 59.4293C42.8313 61.6097 42.237 63.4267 41.1127 64.8823C39.9562 66.3661 38.3199 67.0909 36.2057 67.0587C32.1742 67.0266 30.1263 64.7819 30.062 60.3207C30.0239 58.8008 30.4355 56.1888 31.2988 52.4825C32.0577 49.2118 32.387 46.3046 32.2866 43.7608ZM28.1747 21.9004C28.1747 20.1135 28.769 18.692 29.9576 17.6359C31.1462 16.608 32.7805 16.094 34.8646 16.094C36.9787 16.094 38.615 16.608 39.7715 17.6359C40.932 18.6599 41.5142 20.0814 41.5142 21.9004C41.5142 23.6833 40.932 25.0867 39.7715 26.1087C38.615 27.1366 36.9787 27.6506 34.8646 27.6506C32.7805 27.6506 31.1462 27.1366 29.9576 26.1087C28.769 25.0867 28.1747 23.6833 28.1747 21.9004Z" fill="#E12C2C"/>
<path d="M42.7454 61.9511C45.9839 59.7727 48.7787 56.8654 51.1298 53.2294C53.4748 49.5954 55.7556 45.3309 57.9722 40.436C57.0446 39.912 55.8058 39.649 54.2538 39.649C52.5673 39.7454 51.3908 40.5705 50.7282 42.1225C50.0697 43.7127 49.8709 45.3169 50.1339 46.9331C48.4153 46.5376 47.044 45.6281 46.0221 44.2026C44.9981 42.8172 44.4881 41.2472 44.4881 39.4964C44.4881 37.2477 45.1146 35.3002 46.3674 33.6498C47.5921 32.0276 49.2786 31.2164 51.4269 31.2164C52.8123 31.2164 54.2338 31.5658 55.6914 32.2605C57.1089 32.9511 58.3497 33.8948 59.4097 35.0874C60.6626 32.5074 62.329 31.2164 64.4131 31.2164C65.5374 31.2164 66.6095 31.6802 67.6335 32.6058C68.6615 33.5655 69.4726 34.8364 70.0669 36.4205C68.278 37.2517 66.6577 38.5066 65.2081 40.1871C63.7505 41.8736 62.6101 43.544 61.7869 45.1984C60.9236 46.8849 59.8515 49.0171 58.5665 51.5911C57.2434 54.2052 56.0528 56.3535 54.9927 58.04C55.7516 58.57 56.8258 58.835 58.2131 58.835C59.9679 58.835 61.2268 58.2227 61.9877 56.9959C63.106 55.4118 63.353 53.908 62.7266 52.4825C64.6419 52.8158 66.1959 53.5266 67.3845 54.6188C68.5771 55.711 69.2738 56.9357 69.4726 58.2889C69.6372 59.6442 69.5047 60.9833 69.071 62.3044C68.6414 63.6275 67.8021 64.7338 66.5493 65.6212C65.2583 66.5468 63.7545 67.0267 62.0359 67.0588C58.4641 66.9945 55.5227 65.6574 53.2098 63.0433C51.9188 65.7216 50.3307 67.0588 48.4474 67.0588C47.291 67.0588 46.2008 66.595 45.1788 65.6694C44.1549 64.782 43.3437 63.5412 42.7454 61.9511Z" fill="#E12C2C"/>
<path d="M68.474 61.9511C71.7125 59.7727 74.5073 56.8654 76.8584 53.2294C79.2034 49.5954 81.4842 45.3309 83.7008 40.436C82.7732 39.912 81.5344 39.649 79.9824 39.649C78.2959 39.7454 77.1194 40.5705 76.4568 42.1225C75.7983 43.7127 75.5995 45.3169 75.8625 46.9331C74.1439 46.5376 72.7726 45.6281 71.7506 44.2026C70.7267 42.8172 70.2167 41.2472 70.2167 39.4964C70.2167 37.2477 70.8431 35.3002 72.096 33.6498C73.3207 32.0276 75.0072 31.2164 77.1555 31.2164C78.5409 31.2164 79.9623 31.5658 81.42 32.2605C82.8374 32.9511 84.0782 33.8948 85.1383 35.0874C86.3912 32.5074 88.0576 31.2164 90.1416 31.2164C91.266 31.2164 92.3381 31.6802 93.3621 32.6058C94.39 33.5655 95.2012 34.8364 95.7955 36.4205C94.0066 37.2517 92.3863 38.5066 90.9367 40.1871C89.4791 41.8736 88.3387 43.544 87.5155 45.1984C86.6522 46.8849 85.58 49.0171 84.2951 51.5911C82.972 54.2052 81.7814 56.3535 80.7213 58.04C81.4802 58.57 82.5543 58.835 83.9417 58.835C85.6965 58.835 86.9553 58.2227 87.7163 56.9959C88.8346 55.4118 89.0815 53.908 88.4551 52.4825C90.3705 52.8158 91.9245 53.5266 93.1131 54.6188C94.3057 55.711 95.0024 56.9357 95.2012 58.2889C95.3658 59.6442 95.2333 60.9833 94.7996 62.3044C94.37 63.6275 93.5307 64.7338 92.2779 65.6212C90.9869 66.5468 89.4831 67.0267 87.7645 67.0588C84.1927 66.9945 81.2513 65.6574 78.9384 63.0433C77.6474 65.7216 76.0593 67.0588 74.176 67.0588C73.0195 67.0588 71.9293 66.595 70.9074 65.6694C69.8834 64.782 69.0723 63.5412 68.474 61.9511Z" fill="#E12C2C"/>
<path d="M109.132 61.5575C107.841 65.1614 105.823 66.9945 103.077 67.0588C100.041 67.1591 97.7784 65.1454 96.2906 61.0114C94.8009 56.8835 94.4375 51.9926 95.1984 46.3388C95.9574 40.5203 97.6599 36.2077 100.306 33.4008C101.858 31.7464 103.625 30.8871 105.607 30.8229H106.056C106.95 30.8229 107.759 30.9233 108.482 31.12C109.209 31.3188 109.839 31.5657 110.369 31.8589C110.899 32.16 111.361 32.5897 111.758 33.1519C112.154 33.7462 112.483 34.2923 112.746 34.7902C113.013 35.3162 113.246 36.025 113.445 36.9184C113.605 37.8139 113.736 38.5889 113.838 39.2474C113.903 39.9441 113.969 40.8536 114.039 41.9779C114.071 43.1023 114.087 44.062 114.087 44.853C114.087 45.6461 114.103 46.7042 114.136 48.0253C114.136 49.3484 114.136 50.4225 114.136 51.2457C114.2 54.9139 115.027 56.7469 116.617 56.7469C117.44 56.7469 118.332 56.3193 119.291 55.462C119.821 56.7148 120.05 58.0379 119.982 59.4293C119.918 61.7101 119.422 63.5612 118.496 64.9787C117.569 66.3982 116.067 67.0909 113.991 67.0588C112.732 67.0588 111.672 66.5628 110.811 65.573C109.953 64.5832 109.457 63.244 109.325 61.5575H109.132ZM107.149 41.2311C105.723 41.2311 104.302 41.9599 102.884 43.4155C101.459 44.9052 100.35 46.6078 99.5593 48.5232C98.7662 50.4727 98.4209 52.1572 98.5233 53.5747C98.6518 55.6587 99.5271 56.7148 101.149 56.7469C102.306 56.7469 103.593 56.0543 105.012 54.6669C106.436 53.3137 107.608 51.6453 108.53 49.6636C109.455 47.6779 109.871 45.9252 109.775 44.4033C109.64 42.2891 108.765 41.2311 107.149 41.2311Z" fill="#E12C2C"/>
<mask id="mask0_5001_18431" style="mask-type:luminance" maskUnits="userSpaceOnUse" x="43" y="0" width="60" height="36">
<path d="M43.5164 0.514038H102.111V35.9789H43.5164V0.514038Z" fill="white"/>
</mask>
<g mask="url(#mask0_5001_18431)">
<mask id="mask1_5001_18431" style="mask-type:luminance" maskUnits="userSpaceOnUse" x="33" y="-11" width="76" height="73">
<path d="M54.4989 -10.0587L108.869 12.7955L88.2532 61.8368L33.8833 38.9806L54.4989 -10.0587Z" fill="white"/>
</mask>
<g mask="url(#mask1_5001_18431)">
<mask id="mask2_5001_18431" style="mask-type:luminance" maskUnits="userSpaceOnUse" x="33" y="-11" width="76" height="73">
<path d="M54.4989 -10.0587L108.869 12.7955L88.2532 61.8368L33.8833 38.9806L54.4989 -10.0587Z" fill="white"/>
</mask>
<g mask="url(#mask2_5001_18431)">
<mask id="mask3_5001_18431" style="mask-type:luminance" maskUnits="userSpaceOnUse" x="33" y="-11" width="76" height="73">
<path d="M54.4989 -10.0587L108.869 12.7955L88.2532 61.8368L33.8833 38.9806L54.4989 -10.0587Z" fill="white"/>
</mask>
<g mask="url(#mask3_5001_18431)">
<path d="M43.9682 35.0876C43.936 35.0736 43.9099 35.0535 43.8899 35.0254C43.8537 34.9752 43.8457 34.911 43.8678 34.8547C44.1308 34.1621 44.4761 33.5156 44.8114 32.9193C44.964 32.6462 45.1066 32.3531 45.2431 32.07C45.5924 31.3492 45.9538 30.6043 46.5622 30.0241C47.1123 29.5001 47.7688 29.3575 48.4073 29.6266C49.0056 29.8775 49.5357 30.4798 49.7906 31.1946C50.0617 31.9596 49.9352 32.7948 49.8147 33.6039C49.7726 33.887 49.7324 34.152 49.7083 34.411C49.6822 34.7021 49.6822 34.9832 49.7063 35.2503C49.7123 35.3025 49.6943 35.3527 49.6581 35.3908C49.622 35.429 49.5718 35.451 49.5196 35.449C48.4675 35.4109 47.4998 35.3466 46.5602 35.2563L46.3012 35.2302C45.5583 35.1579 44.7913 35.0816 44.0445 35.1017C44.0164 35.1017 43.9923 35.0977 43.9682 35.0876ZM55.33 35.4852C55.3019 35.4751 55.2778 35.4571 55.2598 35.435C55.2256 35.3928 55.2096 35.3386 55.2196 35.2864C55.326 34.7001 55.3682 34.0757 55.4103 33.4734C55.4906 32.3029 55.575 31.0902 56.111 30.0221C56.1191 30.004 56.1311 29.99 56.1432 29.9759C56.8559 29.2491 58.438 29.1969 59.4118 29.6065C59.8716 29.7992 60.1908 30.0843 60.3374 30.4276C60.6606 31.1926 60.2129 32.2667 59.8535 33.1301C59.735 33.4152 59.6246 33.6842 59.5563 33.9031C59.4198 34.3448 59.3495 34.8206 59.3435 35.3587C59.3415 35.4591 59.2592 35.5374 59.1588 35.5374L58.5806 35.5313C57.5205 35.5173 56.4604 35.5052 55.3983 35.5012C55.3742 35.4992 55.3501 35.4952 55.33 35.4852ZM65.0536 35.5595C65.0295 35.5494 65.0074 35.5334 64.9873 35.5133C64.9532 35.4731 64.9371 35.4209 64.9431 35.3687C65.0596 34.401 65.2885 33.5638 65.6398 32.8088C66.4128 31.1484 68.0672 30.1847 70.6953 29.8635C71.3599 29.7811 71.8719 29.737 72.3578 29.7149C72.3658 29.7149 72.3738 29.7129 72.3839 29.7129C73.4821 29.6868 74.5964 29.7209 75.6746 29.753C76.3893 29.7751 77.1282 29.7992 77.851 29.8032C78.9753 29.8113 80.1157 29.7289 81.218 29.6506C82.0813 29.5884 82.9747 29.5242 83.8581 29.5021C85.639 29.4599 87.45 29.5201 89.2008 29.5804C89.6625 29.5964 90.1243 29.6125 90.5861 29.6266C91.6201 29.6567 92.6943 29.6426 93.4632 29.0925C93.4994 29.0664 93.5455 29.0543 93.5897 29.0584C93.6319 29.0644 93.67 29.0503 93.7102 29.0182C93.8567 28.9018 93.9411 28.7612 93.9812 28.5705C93.9852 28.5584 93.9872 28.5484 93.9933 28.5384C94.0053 28.5082 94.0093 28.4781 94.0073 28.454C94.0053 28.444 94.0053 28.4339 94.0073 28.4239C94.0294 28.1549 93.9752 27.8417 93.923 27.5385C93.8507 27.1249 93.7784 26.6972 93.8828 26.3338C93.8949 26.2977 93.8969 26.2676 93.8909 26.2355C93.8848 26.1953 93.8909 26.1552 93.9089 26.121C94.0073 25.9363 94.0937 25.7837 94.1278 25.7195C94.5715 24.9063 95.2662 24.2578 96.0873 23.8884C96.9346 23.5069 98.0148 23.5551 99.1291 24.0229C99.9041 24.3482 100.619 24.8581 101.095 25.4243C101.301 25.6733 101.448 25.9504 101.528 26.2475C101.54 26.2857 101.55 26.3278 101.56 26.372C101.894 27.926 100.496 29.747 99.8238 30.6224C98.5368 32.3049 96.6455 33.118 94.7924 33.7465C94.7542 33.7605 94.7321 33.7786 94.7201 33.7906C94.692 33.8207 94.6538 33.8388 94.6137 33.8468C94.3948 33.879 94.1699 33.9031 93.9531 33.9231C93.8387 33.9352 93.7262 33.9472 93.6178 33.9593C92.5236 34.0898 91.4274 34.1821 90.307 34.2725C87.1147 34.5335 83.8983 34.7242 81.1356 34.8828C80.3466 34.929 79.5575 34.9752 78.7685 35.0234C74.6968 35.2663 70.4885 35.5173 66.3445 35.5655C65.939 35.5695 65.5314 35.5735 65.1258 35.5735C65.0997 35.5735 65.0756 35.5695 65.0536 35.5595ZM92.899 26.8438C92.879 26.8358 92.8589 26.8217 92.8408 26.8057C92.7244 26.6892 92.5939 26.5728 92.4674 26.4623C92.2485 26.2656 92.0196 26.0648 91.843 25.844C91.3029 25.1653 90.8893 24.5891 90.5419 24.0269C90.0681 23.26 89.7569 22.5071 89.6124 21.7863C89.4497 20.9772 89.7248 20.3046 90.0982 19.6761C89.7971 19.9151 89.5059 20.1841 89.3072 20.4853C89.2771 20.5334 89.2249 20.5636 89.1686 20.5676C89.1405 20.5696 89.1104 20.5636 89.0843 20.5535C89.0683 20.5455 89.0542 20.5375 89.0401 20.5274C88.9096 20.4471 88.7611 20.3748 88.5743 20.2965C88.4639 20.2504 88.3515 20.2062 88.2411 20.162C88.1246 20.1178 88.0102 20.0737 87.8957 20.0255C87.6307 19.9151 87.4339 19.8107 87.2512 19.6882C86.683 19.3047 86.1671 18.6542 85.7213 17.7607C85.0166 16.3493 85.2074 14.9559 86.1771 14.0183C85.5326 14.3315 85.105 14.8334 84.9263 15.496C84.9102 15.5522 84.868 15.6004 84.8118 15.6185C84.7677 15.6345 84.7215 15.6325 84.6793 15.6145C84.6673 15.6104 84.6552 15.6024 84.6432 15.5944C84.5287 15.5121 84.3942 15.4398 84.2195 15.3675C84.087 15.3113 83.9505 15.2631 83.8059 15.2109C83.6594 15.1587 83.5108 15.1065 83.3662 15.0463C83.2618 15.0021 83.1715 14.9579 83.0872 14.9138C82.3824 14.5303 81.742 13.9641 81.1818 13.2293C80.5875 12.4462 80.2562 11.5046 80.2261 10.5047C80.2261 10.4786 80.2301 10.4525 80.2402 10.4284C80.2402 10.4284 80.2422 10.4264 80.2422 10.4244C80.2321 10.4003 80.2241 10.3682 80.2241 10.3441C80.2241 9.83013 80.3024 9.32017 80.457 8.82224C80.1197 9.22781 79.9009 9.6916 79.8045 10.2036C79.7884 10.2899 79.7141 10.3521 79.6278 10.3521C79.5174 10.3521 79.405 10.3582 79.2945 10.3642C79.0175 10.3762 78.7304 10.3903 78.4412 10.3401C78.2003 10.2999 77.9534 10.2277 77.7044 10.1233C77.2225 9.92048 76.7246 9.59523 76.2267 9.15954C75.0461 8.11953 74.5442 6.74422 74.8213 5.43115C74.6867 5.65602 74.5944 5.90097 74.5422 6.16599C74.5301 6.21819 74.496 6.26437 74.4498 6.29047C74.4016 6.31657 74.3434 6.31858 74.2932 6.2985C74.0162 6.18607 73.709 6.13989 73.3817 6.0917C73.0625 6.04352 72.7332 5.99533 72.422 5.87888C72.3859 5.86683 72.3497 5.85278 72.3156 5.83873C71.6671 5.56567 71.0848 5.0296 70.7194 4.37106C70.7034 4.34295 70.6953 4.31083 70.6953 4.28071C70.6973 4.21044 70.6632 4.13615 70.607 4.09198C70.5829 4.07191 70.5628 4.04581 70.5528 4.0177C70.5508 4.01368 70.5488 4.01167 70.5488 4.00766C70.2777 3.24672 70.5568 2.4135 71.2977 1.77705C72.434 0.801281 74.0463 0.576413 75.5039 1.18878C75.8392 1.32932 76.1564 1.51002 76.4475 1.72685C76.4917 1.76099 76.5198 1.81118 76.5218 1.86539C76.5238 1.9196 76.5017 1.97381 76.4616 2.00995C76.307 2.14647 76.1865 2.30509 76.1022 2.48177C77.2908 1.73087 78.4774 1.76299 79.5897 1.9196C80.1358 1.9979 80.6879 2.1525 81.232 2.38138C81.2802 2.40146 81.3284 2.42154 81.3766 2.44362C81.6898 2.58216 81.9749 2.80301 82.2499 3.01784C82.4226 3.15035 82.5993 3.28688 82.774 3.3973C82.8282 3.43344 82.8623 3.49367 82.8603 3.55591C82.8583 3.62016 82.8242 3.68039 82.7679 3.71051C82.4126 3.90928 82.1375 4.15222 81.9668 4.4072C82.6615 3.86511 83.82 3.80086 84.5548 3.91932C84.9243 3.97754 85.3077 4.09198 85.7294 4.26867C86.2815 4.50156 86.8055 4.80473 87.2894 5.09385C88.0684 5.55965 88.8113 6.1178 89.4959 6.75426C89.9878 7.21002 90.291 7.71597 90.4476 8.34239C90.4857 8.49498 90.5058 8.63351 90.5259 8.76803C90.552 8.93668 90.5761 9.0953 90.6323 9.24789C90.6504 9.30009 90.6463 9.3563 90.6182 9.40248C90.5901 9.44866 90.5439 9.48078 90.4917 9.49082C90.2087 9.537 89.9356 9.6153 89.6706 9.72573C90.6102 9.61932 91.6201 9.78797 92.6842 10.2357C93.4672 10.565 94.2683 11.0488 95.0012 11.6331C95.7681 12.2435 96.4447 12.9984 97.0149 13.8737C97.3 14.3114 97.5088 14.7913 97.7337 15.3274C98.0088 15.9739 97.9546 16.4457 97.8903 16.9938C97.8763 17.1263 97.8602 17.2648 97.8481 17.4134C97.8522 17.4676 97.8301 17.5238 97.7879 17.562C97.7377 17.6061 97.6674 17.6202 97.6032 17.5981C96.8382 17.319 96.0793 17.2307 95.3405 17.3311C95.5272 17.4034 95.7119 17.4736 95.8966 17.5439C96.2921 17.6945 96.6676 17.837 97.041 17.9936C98.1473 18.4594 99.2997 19.0598 100.245 20.2925C101.018 21.3024 101.442 22.495 101.727 23.4206C101.934 24.1012 102.046 24.6393 102.087 25.1693C102.105 25.3701 102.076 25.5528 102.044 25.7195C102.028 25.7978 101.964 25.856 101.884 25.864C101.854 25.868 101.821 25.862 101.793 25.852C101.751 25.8339 101.717 25.7998 101.697 25.7556C101.5 25.2958 101.171 24.8722 100.717 24.5008C100.31 24.1675 99.8579 23.8924 99.368 23.6876C97.8763 23.0592 96.2881 23.1696 95.1216 23.9808C94.6759 24.292 93.4652 25.6512 93.144 26.7294C93.1259 26.7896 93.0777 26.8378 93.0155 26.8538C92.9753 26.8619 92.9352 26.8599 92.899 26.8438Z" fill="#FFAC3E"/>
</g>
</g>
</g>
</g>
<mask id="mask4_5001_18431" style="mask-type:luminance" maskUnits="userSpaceOnUse" x="37" y="4" width="57" height="42">
<path d="M37.3486 4.62585H93.8869V45.2306H37.3486V4.62585Z" fill="white"/>
</mask>
<g mask="url(#mask4_5001_18431)">
<mask id="mask5_5001_18431" style="mask-type:luminance" maskUnits="userSpaceOnUse" x="33" y="-11" width="76" height="73">
<path d="M54.4989 -10.0588L108.869 12.7954L88.2532 61.8367L33.8833 38.9805L54.4989 -10.0588Z" fill="white"/>
</mask>
<g mask="url(#mask5_5001_18431)">
<mask id="mask6_5001_18431" style="mask-type:luminance" maskUnits="userSpaceOnUse" x="33" y="-11" width="76" height="73">
<path d="M54.4989 -10.0588L108.869 12.7954L88.2532 61.8367L33.8833 38.9805L54.4989 -10.0588Z" fill="white"/>
</mask>
<g mask="url(#mask6_5001_18431)">
<mask id="mask7_5001_18431" style="mask-type:luminance" maskUnits="userSpaceOnUse" x="33" y="-11" width="76" height="73">
<path d="M54.4989 -10.0588L108.869 12.7954L88.2532 61.8367L33.8833 38.9805L54.4989 -10.0588Z" fill="white"/>
</mask>
<g mask="url(#mask7_5001_18431)">
<path d="M39.4166 40.2935C39.1536 40.1831 38.8986 40.0305 38.6577 39.8397C37.4129 38.8559 37.6217 37.1313 37.8044 35.6074C37.8666 35.0894 37.9269 34.5995 37.9229 34.1779C37.9209 33.8948 37.9088 33.6057 37.8968 33.3246C37.8606 32.4452 37.8225 31.5357 38.0775 30.6543C38.2541 30.0439 38.6557 29.5842 39.0432 29.1384C39.4206 28.7048 39.776 28.2952 39.9386 27.7611C39.9487 27.725 39.9507 27.6929 39.9467 27.6627C39.9386 27.6286 39.9427 27.5905 39.9567 27.5583C40.029 27.3837 40.0932 27.207 40.1575 27.0283L40.1936 26.9279C40.4607 26.1951 40.9987 25.655 41.4726 25.1792C41.579 25.0707 41.6894 24.9623 41.7978 24.8539C42.0408 24.613 42.2917 24.364 42.5286 24.109C42.6551 23.9685 42.7836 23.8279 42.9101 23.6874C43.147 23.4284 43.3819 23.1694 43.6229 22.9124C45.2411 21.1797 46.9879 19.4952 48.9635 17.7665C55.4043 12.1248 62.5037 7.71173 70.0649 4.64589C70.1111 4.62782 70.1613 4.62983 70.2055 4.6479C70.2416 4.66195 70.2717 4.69006 70.2938 4.7262C70.613 5.29038 71.121 5.79633 71.6852 6.11155C71.898 6.23001 72.1148 6.33642 72.3337 6.42877C72.8758 6.65565 73.6508 6.88855 74.2591 6.69179C74.2993 6.67773 74.3455 6.67974 74.3856 6.69781C74.3956 6.70183 74.4077 6.70785 74.4177 6.71387C74.4639 6.746 74.494 6.7982 74.498 6.85442C74.5442 7.65551 74.9157 8.5088 75.514 9.19545C76.03 9.78774 76.6925 10.2576 77.4836 10.5888C77.6603 10.6631 77.845 10.7314 78.0317 10.7896C78.2907 10.8719 78.9593 11.0466 79.5375 10.9161C79.5756 10.9081 79.6138 10.9121 79.6479 10.9261C79.662 10.9322 79.676 10.9402 79.6861 10.9482C79.7302 10.9803 79.7563 11.0285 79.7604 11.0807C79.8065 11.7051 80.0173 12.3536 80.3687 12.958C80.8626 13.8073 81.5272 14.526 82.3463 15.0942C82.6274 15.289 83.0972 15.6122 83.561 15.809C83.9806 15.9837 84.328 16.0278 84.593 15.9375C84.6352 15.9234 84.6814 15.9254 84.7235 15.9435C84.7356 15.9475 84.7496 15.9555 84.7617 15.9636C84.8098 15.9997 84.8359 16.0579 84.8339 16.1182C84.7657 17.8589 86.1048 19.9168 87.7592 20.6115C88.1267 20.7661 88.4981 20.8504 88.8675 20.8625C88.8996 20.8565 88.9338 20.8625 88.9639 20.8745C88.986 20.8846 89.006 20.8966 89.0221 20.9147C89.0683 20.9609 89.0864 21.0271 89.0703 21.0894C88.9699 21.9728 89.3233 22.8441 89.6847 23.583C90.0501 24.3359 90.554 25.1029 91.2708 25.9983C91.337 26.0786 91.4053 26.169 91.4776 26.2613C91.835 26.7291 92.2807 27.3094 92.7826 27.5202C92.889 27.5644 92.9934 27.5905 93.0958 27.5985C93.1159 27.6005 93.134 27.6045 93.1521 27.6125C93.1782 27.6226 93.1982 27.6386 93.2183 27.6587C93.2565 27.7009 93.2966 27.737 93.3388 27.7651C93.3548 27.7772 93.3729 27.7872 93.389 27.7932C93.405 27.8013 93.4211 27.8053 93.4371 27.8073C93.4532 27.8093 93.4673 27.8133 93.4813 27.8193C93.5416 27.8454 93.5837 27.8997 93.5917 27.9659C93.6098 28.1065 93.6178 28.2289 93.6138 28.3253C93.6118 28.3474 93.6078 28.3675 93.5998 28.3875C93.5938 28.4036 93.5837 28.4217 93.5717 28.4357C92.7144 29.4737 90.8853 29.3292 89.5522 29.2228C89.261 29.2007 88.986 29.1786 88.7491 29.1706C86.8457 29.1083 84.8078 29.0621 82.7941 29.1384C82.0934 29.1665 81.3866 29.2127 80.702 29.2589C79.4993 29.3372 78.2565 29.4195 77.0117 29.3974C76.4958 29.3874 75.9798 29.3733 75.4638 29.3573C74.2029 29.3191 72.8979 29.281 71.6209 29.3432C71.5989 29.3452 71.5768 29.3492 71.5627 29.3553C71.5466 29.3613 71.5286 29.3633 71.5125 29.3653C70.1593 29.4617 68.1877 29.7227 66.6879 30.8611C65.5676 31.7124 64.8649 33.1318 64.5396 35.2018L64.5095 35.4046C64.385 36.3463 64.4091 37.324 64.4352 38.2697C64.4653 39.4221 64.4974 40.6147 64.2585 41.7853C63.9995 43.0521 63.2045 44.0962 62.0179 44.7246C61.4617 45.0197 60.9959 45.092 60.6385 44.9414C60.4237 44.8511 60.2531 44.6824 60.1306 44.4395C59.6046 43.3995 59.7632 41.976 59.8917 40.8336C59.9137 40.6408 59.9338 40.4561 59.9499 40.2794C59.9619 40.153 59.976 40.0245 59.9921 39.894C60.0302 39.5426 60.0704 39.1812 60.0583 38.8319C60.0422 38.3038 59.972 37.7657 59.9057 37.2477C59.8656 36.9406 59.8234 36.6233 59.7933 36.3081C59.7351 35.7038 59.731 35.2079 59.7792 34.7441C59.8314 34.2341 60.0463 33.6699 60.2751 33.0736C60.7309 31.877 61.2027 30.6402 60.3816 29.7709C60.1788 29.5581 59.9198 29.3834 59.6146 29.2549C58.6569 28.8533 57.4663 28.9698 56.6732 29.2147C56.3761 29.3051 56.1091 29.4557 55.9003 29.6464C55.8902 29.6544 55.8802 29.6625 55.8701 29.6685C55.8501 29.6845 55.834 29.7006 55.8179 29.7227C55.8179 29.7227 55.7999 29.7468 55.7979 29.7488C55.6553 29.9054 55.5489 30.0801 55.4847 30.2688C55.4706 30.309 55.4686 30.3471 55.4766 30.3852C55.4847 30.4174 55.4806 30.4535 55.4706 30.4856C55.1453 31.3771 55.065 32.3067 54.9807 33.2905L54.9506 33.6318C54.9406 33.7462 54.9305 33.8687 54.9205 33.9952C54.8703 34.6577 54.8121 35.4066 54.5992 36.0873C54.4085 36.6956 54.1274 37.1353 53.7399 37.4304C53.1476 37.8822 52.3465 37.6332 51.7141 37.3682C51.6599 37.3461 51.6097 37.324 51.5595 37.3019C51.0475 37.0771 50.664 36.7438 50.4231 36.3121C50.1601 35.8403 50.0577 35.24 50.1059 34.479C50.126 34.1839 50.1581 33.8727 50.1902 33.5715C50.3428 32.1701 50.4974 30.7185 49.357 29.7106C49.1382 29.5179 48.9073 29.3693 48.6724 29.2709C47.4195 28.7429 46.1546 29.6625 45.4559 30.8089C44.6649 32.1059 43.6951 33.8366 43.2012 35.7058C43.1992 35.7098 43.1972 35.7138 43.1972 35.7198C43.1149 36.021 43.0486 36.3222 42.9964 36.6153C42.9744 36.7418 42.9523 36.8683 42.9322 36.9928C42.7676 37.9685 42.615 38.8901 41.9444 39.7173C41.316 40.4943 40.3944 40.7031 39.4166 40.2935Z" fill="#FFD939"/>
</g>
</g>
</g>
</g>
<mask id="mask8_5001_18431" style="mask-type:luminance" maskUnits="userSpaceOnUse" x="44" y="8" width="44" height="21">
<path d="M44.5444 8.73779H87.2051V28.2692H44.5444V8.73779Z" fill="white"/>
</mask>
<g mask="url(#mask8_5001_18431)">
<mask id="mask9_5001_18431" style="mask-type:luminance" maskUnits="userSpaceOnUse" x="33" y="-11" width="76" height="73">
<path d="M54.4989 -10.0588L108.869 12.7954L88.2532 61.8367L33.8833 38.9805L54.4989 -10.0588Z" fill="white"/>
</mask>
<g mask="url(#mask9_5001_18431)">
<mask id="mask10_5001_18431" style="mask-type:luminance" maskUnits="userSpaceOnUse" x="33" y="-11" width="76" height="73">
<path d="M54.4989 -10.0588L108.869 12.7954L88.2532 61.8367L33.8833 38.9805L54.4989 -10.0588Z" fill="white"/>
</mask>
<g mask="url(#mask10_5001_18431)">
<mask id="mask11_5001_18431" style="mask-type:luminance" maskUnits="userSpaceOnUse" x="33" y="-11" width="76" height="73">
<path d="M54.4989 -10.0588L108.869 12.7954L88.2532 61.8367L33.8833 38.9805L54.4989 -10.0588Z" fill="white"/>
</mask>
<g mask="url(#mask11_5001_18431)">
<path d="M71.5386 10.3799C71.386 9.99446 71.4463 9.63507 71.7053 9.36603C72.0526 9.00865 72.7111 8.87815 73.2372 9.06487C73.2372 9.06487 73.2372 9.06487 73.2392 9.06487C74.0483 9.40619 74.7289 10.3599 74.4298 11.1951C74.3495 11.424 74.1909 11.5946 73.976 11.691C73.5946 11.8577 73.0866 11.7613 72.7393 11.6167L72.7011 11.5987C72.1791 11.3637 71.7454 10.908 71.5386 10.3799ZM69.1755 12.1106C68.6876 11.171 67.9367 10.4823 66.9449 10.0647C66.2261 9.76357 65.413 9.61901 64.5296 9.63306C64.5175 9.63507 64.5055 9.63306 64.4934 9.62905C64.4653 9.617 64.4352 9.61499 64.4031 9.61901C62.568 9.91013 60.1768 10.9702 59.2693 12.6166C58.7854 13.494 58.7573 14.4376 59.1809 15.4214C59.6025 16.3972 60.3575 17.136 61.3653 17.5597H61.3674C62.2488 17.9311 63.2888 18.0516 64.371 17.913C66.2161 17.6761 68.4708 16.7786 69.2739 14.9737C69.6875 14.0441 69.6533 13.0282 69.1755 12.1106ZM80.4129 22.5027C81.489 21.533 82.1877 19.8385 81.1859 18.4109C80.5313 17.4773 79.5515 16.9654 78.5236 16.4835C78.5216 16.4835 78.5055 16.4775 78.5015 16.4755C76.0581 15.6945 72.7654 15.2126 70.9544 17.3609C70.2396 18.2062 69.9806 19.1538 70.2055 20.1015C70.4866 21.2881 71.5446 22.4064 72.9661 23.0207L73.0505 23.0569C75.1767 23.9503 78.381 24.3418 80.4129 22.5027ZM77.5297 14.0822C77.5779 14.1144 77.6321 14.1425 77.6904 14.1666C78.1421 14.3573 78.7545 14.275 79.0837 13.9778C79.5435 13.5662 79.1922 13.0442 78.9593 12.6969C78.9312 12.6547 78.9051 12.6146 78.879 12.5744C78.8589 12.5423 78.8288 12.5182 78.7946 12.5041C78.7826 12.5001 78.7725 12.4961 78.7685 12.4961C78.3027 12.3214 77.7566 12.4158 77.4073 12.731C77.2065 12.9137 77.1021 13.1647 77.1242 13.4237C77.1443 13.6867 77.2928 13.9276 77.5297 14.0822ZM87.0244 23.7174C87.0244 23.6612 87.0003 23.609 86.9561 23.5749C86.9421 23.5648 86.928 23.5568 86.914 23.5508C86.8778 23.5347 86.8377 23.5327 86.7995 23.5407C86.0727 23.7174 83.9525 24.4924 83.5409 25.432C83.4386 25.667 83.4466 25.9039 83.565 26.1187C83.7397 26.4339 84.1051 26.7491 84.4786 26.9057C84.8239 27.0523 85.1471 27.0543 85.4122 26.9138C85.8177 26.6969 86.0185 26.2874 86.1952 25.926L86.2032 25.9079C86.2675 25.7774 86.3397 25.6429 86.412 25.5023C86.7011 24.9582 87.0264 24.3418 87.0244 23.7174ZM67.7379 20.9628C67.7319 20.9487 67.7239 20.9367 67.7159 20.9267C67.6576 20.7982 67.5552 20.6978 67.4167 20.6416C66.981 20.4568 66.2582 20.7179 66.0093 20.9206C65.8226 21.0732 65.7362 21.278 65.7683 21.4949C65.8045 21.7358 65.9832 21.9486 66.2341 22.055C66.2643 22.0671 66.2944 22.0791 66.3245 22.0871C66.71 22.2016 67.764 22.049 67.9849 21.6193C68.0471 21.4969 68.1014 21.2519 67.752 20.9789C67.75 20.9748 67.746 20.9728 67.744 20.9708V20.9688C67.742 20.9668 67.74 20.9648 67.7379 20.9628ZM54.9044 16.4253C54.9285 16.4353 54.9526 16.4434 54.9787 16.4534C55.577 16.6602 56.4745 16.345 56.862 15.7908C57.119 15.4214 57.1009 15.0078 56.8118 14.6544C56.7917 14.6304 56.7636 14.6103 56.7355 14.5982C56.7274 14.5942 56.7214 14.5922 56.7134 14.5902C56.6793 14.5721 56.6451 14.5561 56.611 14.542C55.9866 14.279 55.2377 14.5561 54.808 14.9255C54.5109 15.1765 54.3583 15.5278 54.4085 15.841C54.4486 16.1 54.6253 16.3068 54.9044 16.4253ZM49.0036 24.5185C48.9936 24.5065 48.9836 24.4964 48.9715 24.4884C48.8751 24.4222 48.7707 24.3639 48.6603 24.3157C47.538 23.8439 45.9358 24.5346 45.207 25.149C44.7974 25.4943 44.5986 25.8637 44.6508 26.189C44.693 26.464 44.8978 26.6809 45.2592 26.8315L45.2813 26.8415C46.0061 27.1326 46.8955 27.1688 47.6042 26.9318C48.1323 26.7552 49.0036 26.1107 49.1984 25.4039C49.2887 25.0767 49.2205 24.7695 49.0036 24.5185ZM79.7684 26.5805C79.5375 26.3616 79.2644 26.1829 78.9773 26.0625C78.5557 25.8858 78.118 25.8356 77.7104 25.9199C77.3932 25.9842 77.1764 26.1287 77.082 26.3355C77.0218 26.466 76.9877 26.6829 77.1543 26.978C77.339 27.3033 77.6643 27.5884 78.0257 27.741C78.1461 27.7912 78.2686 27.8253 78.3871 27.8434C78.8328 27.9116 79.3367 27.751 79.6138 27.4559C79.8186 27.237 79.8888 26.966 79.8226 26.6728C79.8146 26.6367 79.7965 26.6046 79.7684 26.5805ZM67.3003 25.0546C67.2862 25.0425 67.2621 25.0285 67.244 25.0205C66.2101 24.5868 64.901 24.7856 64.0597 25.5023C63.7245 25.7894 63.6863 26.0585 63.7144 26.2331C63.7526 26.4921 63.9634 26.717 64.3047 26.8636L64.3268 26.8736C64.9713 27.1447 65.7001 27.1587 66.2763 26.9118C66.6337 26.7592 67.4488 26.2331 67.5372 25.6569C67.5733 25.43 67.491 25.2212 67.3003 25.0546ZM60.8092 19.722C60.3996 19.461 59.9338 19.2201 59.4299 19.0093C57.6631 18.2664 55.7477 17.9913 54.3061 18.2744C53.0211 18.5254 51.423 19.6598 51.0937 20.9467C50.9572 21.4828 50.9813 22.2779 51.8807 23.0308C51.8928 23.0408 51.9008 23.0529 51.9068 23.0669C51.9229 23.1051 51.949 23.1352 51.9851 23.1553C52.2642 23.3199 52.5594 23.4645 52.8846 23.601C53.7319 23.9584 54.6334 24.1832 55.5067 24.4001C55.7718 24.4663 56.0368 24.5326 56.2998 24.6028C57.2595 24.8578 58.2814 25.0727 59.2512 24.9261C60.6024 24.7173 61.7729 23.6492 62.0359 22.3843C62.2568 21.3282 61.8091 20.3565 60.8092 19.722Z" fill="#F44242"/>
</g>
</g>
</g>
</g>
<mask id="mask12_5001_18431" style="mask-type:luminance" maskUnits="userSpaceOnUse" x="37" y="0" width="62" height="43">
<path d="M37.3486 0.514038H98.5127V42.1467H37.3486V0.514038Z" fill="white"/>
</mask>
<g mask="url(#mask12_5001_18431)">
<mask id="mask13_5001_18431" style="mask-type:luminance" maskUnits="userSpaceOnUse" x="33" y="-11" width="76" height="73">
<path d="M54.4989 -10.0587L108.869 12.7955L88.2532 61.8368L33.8833 38.9806L54.4989 -10.0587Z" fill="white"/>
</mask>
<g mask="url(#mask13_5001_18431)">
<mask id="mask14_5001_18431" style="mask-type:luminance" maskUnits="userSpaceOnUse" x="33" y="-11" width="76" height="73">
<path d="M54.4989 -10.0587L108.869 12.7955L88.2532 61.8368L33.8833 38.9806L54.4989 -10.0587Z" fill="white"/>
</mask>
<g mask="url(#mask14_5001_18431)">
<mask id="mask15_5001_18431" style="mask-type:luminance" maskUnits="userSpaceOnUse" x="33" y="-11" width="76" height="73">
<path d="M54.4989 -10.0587L108.869 12.7955L88.2532 61.8368L33.8833 38.9806L54.4989 -10.0587Z" fill="white"/>
</mask>
<g mask="url(#mask15_5001_18431)">
<path d="M76.9816 17.4916C75.9878 17.2627 75.1485 17.1242 74.1828 17.5719C73.3355 17.9655 72.6188 18.618 71.8578 19.1541C71.7554 19.2263 71.6049 19.146 71.6229 19.0155C71.904 16.9295 75.8191 14.9619 77.1663 17.1764C77.2466 17.3049 77.1683 17.5338 76.9816 17.4916ZM71.8538 19.5998C71.6169 19.5014 71.3378 19.6138 71.2394 19.8487C71.1411 20.0836 71.2555 20.3607 71.4904 20.4611C71.7273 20.5595 72.0064 20.447 72.1048 20.2121C72.2032 19.9772 72.0887 19.7002 71.8538 19.5998ZM60.757 13.3858C60.7911 13.5103 60.9859 13.5584 61.0802 13.4741C62.1724 12.4903 63.5538 10.2597 65.2965 10.7496C65.3768 10.7717 65.4491 10.7095 65.421 10.6251C64.8146 8.71375 60.2972 11.7093 60.757 13.3858ZM61.2649 14.9157C61.3613 14.6888 61.2489 14.4178 61.02 14.3214C60.7911 14.225 60.5201 14.3354 60.4237 14.5623C60.3293 14.7912 60.4398 15.0602 60.6686 15.1566C60.8975 15.253 61.1686 15.1446 61.2649 14.9157ZM56.5989 19.5255C56.7816 19.5154 56.7897 19.2625 56.6431 19.1942C55.7175 18.7605 54.6594 18.7947 53.7018 19.1119C52.8123 19.409 52.0072 20.4229 52.5272 21.3425C52.5875 21.4509 52.7621 21.5192 52.8444 21.3887C53.2721 20.7181 53.5773 20.2001 54.3482 19.8809C55.0349 19.5978 55.8641 19.5656 56.5989 19.5255ZM53.4749 22.3383C53.495 22.248 53.4929 22.1617 53.4568 22.0693C53.3966 21.9227 53.258 21.8163 53.0994 21.7962C52.9448 21.7762 52.7882 21.8404 52.6919 21.9609C52.5875 22.0934 52.5794 22.25 52.6296 22.4046C52.6477 22.4628 52.6818 22.515 52.718 22.5632C52.8043 22.6857 52.9649 22.7479 53.1115 22.7299C53.2821 22.7078 53.4749 22.5512 53.4749 22.3664C53.4769 22.3464 53.4769 22.3383 53.4749 22.3383ZM51.9871 35.71C51.164 34.7844 51.5314 33.5235 51.4571 32.3891C51.445 32.2044 51.1981 32.2044 51.1258 32.345C50.6199 33.3428 49.8368 36.1035 51.5916 36.3906C51.941 36.4468 52.2361 35.991 51.9871 35.71ZM39.4327 37.7579C39.258 37.6033 38.9729 37.6976 38.8886 37.8984C38.8042 38.0992 38.9368 38.3682 39.1697 38.3843C39.2439 38.3883 39.3102 38.3883 39.3805 38.3582C39.5491 38.2819 39.6254 38.1012 39.5612 37.9285C39.5351 37.8562 39.4889 37.8101 39.4327 37.7579ZM61.285 37.9165C61.2368 37.8181 61.1224 37.784 61.03 37.8462C60.498 38.2056 60.4016 39.101 60.3113 39.6873C60.2089 40.374 60.1346 41.1469 60.6586 41.679C60.7469 41.7693 60.9136 41.7091 60.9558 41.6027C61.1786 41.0325 61.1244 40.4021 61.1947 39.8018C61.2629 39.2295 61.55 38.4666 61.285 37.9165ZM80.443 4.71833C80.1498 4.84682 79.9852 5.0235 79.8447 5.3066C79.7122 5.56961 79.5033 5.97317 79.6158 6.26229C79.676 6.4209 79.8748 6.46306 80.0073 6.3707C80.2181 6.22414 80.2322 5.929 80.3064 5.6961C80.3848 5.45718 80.4871 5.16806 80.6217 4.95524C80.698 4.83478 80.5956 4.65207 80.443 4.71833ZM80.7863 5.98722C80.7281 6.07155 80.6739 6.16591 80.6578 6.26831C80.6397 6.3687 80.706 6.4731 80.7983 6.51325C80.9048 6.55743 80.9991 6.51727 81.0734 6.44298C81.1236 6.39279 81.1838 6.30445 81.2119 6.23819C81.232 6.19201 81.23 6.14584 81.236 6.09765C81.2541 5.94707 81.0975 5.81857 80.955 5.88081C80.8947 5.90691 80.8244 5.93301 80.7863 5.98722ZM89.8192 10.7135C88.3897 10.9544 87.2794 12.3759 87.0324 13.7673C87.0023 13.9439 87.2252 14.0022 87.3296 13.8917C88.2351 12.9521 88.6226 11.6491 89.9216 11.0929C90.1243 11.0046 90.048 10.6733 89.8192 10.7135ZM87.9761 14.1568C87.6588 14.3294 87.173 14.6467 87.2673 15.0763C87.2994 15.2289 87.452 15.3433 87.6086 15.2751C87.7411 15.2189 87.8696 15.0984 87.96 14.988C88.0523 14.8795 88.1808 14.8012 88.3033 14.731C88.6306 14.5443 88.3073 13.9781 87.9761 14.1568ZM97.2559 21.8746C97.5289 21.8545 97.8321 21.8464 98.1031 21.8103C98.1814 21.8003 98.316 21.7099 98.3019 21.6156C98.2999 21.5975 98.2959 21.5794 98.2939 21.5613C98.2818 21.4871 98.2316 21.4128 98.1594 21.3867C97.6193 21.1939 97.1555 21.1176 96.5893 21.216C96.0854 21.3023 95.463 21.467 95.1176 21.8585C94.9249 22.0773 95.1477 22.3845 95.4067 22.3644C95.6979 22.3403 95.9488 22.1978 96.2179 22.0954C96.5512 21.9649 96.9005 21.9027 97.2559 21.8746ZM96.9387 20.0595C97.276 20.0334 97.5771 20.2061 97.9064 20.19C98.0168 20.186 98.0409 20.0555 97.9947 19.9772C97.7739 19.5958 97.2137 19.6459 96.8523 19.7403C96.6616 19.7925 96.758 20.0736 96.9387 20.0595ZM92.9031 18.7746C93.1139 18.6802 93.2825 18.5256 93.4873 18.4232C93.6821 18.3269 93.9049 18.3008 94.1097 18.2365C94.1961 18.2104 94.2342 18.0799 94.172 18.0136C93.9471 17.7687 93.6218 17.7787 93.3267 17.8932C93.0155 18.0136 92.7164 18.2566 92.6842 18.6059C92.6722 18.7204 92.7886 18.8268 92.9031 18.7746ZM96.778 25.882C96.5391 25.7816 96.256 25.8961 96.1556 26.135C96.0552 26.3719 96.1717 26.655 96.4106 26.7554C96.6515 26.8558 96.9346 26.7413 97.033 26.5024C97.1334 26.2655 97.017 25.9824 96.778 25.882ZM92.6501 31.9294C92.3851 31.8169 92.0719 31.9434 91.9614 32.2084C91.851 32.4715 91.9795 32.7827 92.2445 32.8951C92.5075 33.0055 92.8208 32.879 92.9332 32.616C93.0436 32.353 92.9151 32.0398 92.6501 31.9294ZM89.0462 32.606C88.7009 32.4614 88.2933 32.6261 88.1487 32.9714C88.0042 33.3147 88.1708 33.7223 88.5161 33.8668C88.8615 34.0134 89.2711 33.8468 89.4156 33.5034C89.5602 33.1601 89.3915 32.7525 89.0462 32.606ZM75.3694 27.7914C75.0502 27.699 74.7871 27.6428 74.4478 27.6288C74.0884 27.6147 73.717 27.679 73.3636 27.7432C73.0284 27.8034 73.0946 28.2813 73.4319 28.2632C73.7451 28.2451 74.0543 28.2572 74.3675 28.2592C74.7068 28.2612 74.9959 28.221 75.3212 28.1468C75.4798 28.1106 75.5662 27.8496 75.3694 27.7914ZM90.4657 27.701C89.8794 27.4039 89.1767 27.4722 88.5402 27.4762C87.9821 27.4822 87.1469 27.4963 86.7092 27.8837C86.5887 27.9902 86.6409 28.1568 86.7915 28.1929C87.3496 28.3315 88.0544 28.1608 88.6306 28.1468C89.2329 28.1307 89.9075 28.1889 90.4637 27.9239C90.562 27.8777 90.562 27.7492 90.4657 27.701ZM65.174 29.5642C64.3328 30.1485 63.4775 31.4897 63.7385 32.5658C63.7787 32.7325 63.9895 32.7706 64.0698 32.61C64.5255 31.7065 64.5998 30.5982 65.415 29.8815C65.6037 29.7148 65.3869 29.4177 65.174 29.5642ZM55.7517 28.0424C55.4164 28.3234 55.0208 28.7812 55.061 29.245C55.069 29.3514 55.2035 29.3996 55.2859 29.3394C55.4907 29.1848 55.587 29.0001 55.7256 28.7872C55.8561 28.5865 55.9504 28.4218 55.9966 28.1869C56.0227 28.0564 55.85 27.96 55.7517 28.0424ZM47.552 26.0266C47.3452 26.0507 45.6306 25.8559 45.723 26.2314C45.7952 26.5305 46.3373 26.4924 46.5722 26.5125C46.9417 26.5446 47.3412 26.4843 47.6564 26.2796C47.7789 26.1992 47.6865 26.0125 47.552 26.0266ZM70.1673 4.66813C69.0851 5.17609 67.9447 5.54552 66.8565 6.04143C65.4611 6.67387 64.0979 7.37257 62.7547 8.10741C61.5782 8.7519 60.4277 9.43654 59.2994 10.1633C58.3115 10.7998 57.1732 11.4342 56.3078 12.2675C56.2295 12.2574 56.1492 12.2635 56.0649 12.2916C54.6956 12.7473 53.4508 13.8636 52.3786 14.7912C51.2081 15.8031 50.1199 16.9054 49.0217 17.9896C47.7367 19.2585 46.3694 20.443 44.9741 21.5854C43.7252 22.6094 42.5427 23.5852 41.5428 24.8661C39.7057 27.2192 38.1176 29.8393 37.7923 32.8449C37.6518 34.1499 37.5655 35.465 37.445 36.7721C37.3466 37.8161 37.451 38.7637 38.4007 39.346C38.5071 39.4123 38.6677 39.3259 38.6075 39.1914C38.2361 38.3441 38.483 37.1435 38.6215 36.2641C38.6296 36.2199 38.6336 36.1737 38.6416 36.1276C38.7541 36.4147 38.9287 36.6556 39.2058 36.76C39.2941 36.7941 39.4266 36.76 39.4568 36.6576C39.6033 36.1557 39.3483 35.5172 39.2801 35.0052C39.1837 34.2865 39.248 33.4633 39.505 32.7847C39.6375 32.4353 39.1335 32.2265 38.9729 32.5598C38.9709 32.5658 38.9689 32.5718 38.9649 32.5759C38.9709 32.5277 38.9769 32.4775 38.9829 32.4273C39.1777 30.8753 39.8021 29.6104 40.6172 28.2953C41.3461 27.1208 42.0889 25.9583 42.9824 24.9002C43.912 23.8 45.0945 22.9708 46.1968 22.0573C47.4496 21.0233 48.6543 19.9351 49.8188 18.8027C50.8909 17.7587 51.947 16.7006 53.0713 15.7108C54.1675 14.745 55.4324 14.0724 56.5748 13.185C56.6873 13.0987 56.7495 12.9903 56.7696 12.8818C57.7695 12.408 58.691 11.6932 59.6206 11.1251C60.8734 10.3581 62.1463 9.61724 63.4353 8.91452C64.6841 8.23189 65.9611 7.60346 67.2541 7.00716C68.3403 6.50924 69.4847 6.14584 70.5669 5.63988C71.1792 5.35478 70.7817 4.38102 70.1673 4.66813ZM82.3142 3.96341C82.6816 4.23044 83.0611 3.72449 82.7418 3.42132C81.8384 2.562 80.5293 2.04601 79.3347 1.76693C78.5336 1.58021 77.329 1.53002 76.562 2.02393C76.562 2.02192 76.562 2.0179 76.562 2.01589C76.1203 0.237028 73.3315 0.241044 72.0767 1.03812C70.7375 1.88941 69.7336 3.89113 71.0889 5.18011C71.2133 5.30057 71.4342 5.19215 71.4503 5.03354C71.5647 3.97144 71.5808 2.95151 72.4521 2.1986C73.458 1.33125 75.1405 1.39751 76.1082 2.27289C76.1404 2.30099 76.1785 2.31706 76.2167 2.32509C76.1946 2.35119 76.1705 2.37528 76.1484 2.40339C76.0661 2.51382 76.1805 2.63227 76.299 2.60015C76.823 2.46161 77.2627 2.24879 77.8209 2.21868C78.4312 2.18655 79.0295 2.29497 79.6118 2.47165C80.6277 2.77683 81.4689 3.34703 82.3142 3.96341ZM98.1694 17.1644C98.4926 15.3152 97.1936 13.5042 95.9528 12.2835C95.1558 11.4965 94.2342 10.7998 93.2223 10.3159C92.5397 9.98867 91.6041 9.58913 90.7548 9.58511C90.823 9.50681 90.8632 9.40241 90.8431 9.29198C90.5319 7.44686 88.7932 5.67602 87.2573 4.73037C85.6812 3.76063 83.7999 3.46951 82.0833 4.2204C81.8584 4.31878 81.9428 4.7123 82.1978 4.65006C83.9304 4.23044 85.6169 4.83678 87.0284 5.84869C87.6869 6.32051 88.2591 6.87666 88.7611 7.51111C89.2972 8.18772 89.5662 9.06711 90.2127 9.64735C90.0922 9.67546 89.9758 9.71562 89.8653 9.76982C89.8152 9.79392 89.787 9.87624 89.8453 9.91238C90.1926 10.1212 90.4657 10.1674 90.8793 10.2336C91.5699 10.346 92.2506 10.587 92.8529 10.9424C93.6218 11.3961 94.2804 12.3036 94.8767 12.9662C95.473 13.6247 96.0753 14.2973 96.4969 15.0863C96.8704 15.785 96.8222 16.5962 97.1595 17.2949C97.3904 17.7707 98.075 17.6944 98.1694 17.1644ZM91.9996 14.8816C91.4193 15.1968 90.5881 15.6385 90.3452 16.295C90.283 16.4637 90.4837 16.6524 90.6383 16.5239C90.8833 16.3191 91.064 16.0481 91.3069 15.8352C91.578 15.5963 91.8711 15.3875 92.1763 15.1908C92.3469 15.0823 92.1803 14.7852 91.9996 14.8816ZM84.3942 8.2339C82.8483 8.73583 81.1336 10.6854 81.9689 12.398C82.0331 12.5305 82.2479 12.5225 82.264 12.3618C82.3403 11.6009 82.3604 10.9664 82.6736 10.2477C83.0169 9.46465 83.7377 8.84024 84.4806 8.44672C84.6111 8.37645 84.5368 8.18571 84.3942 8.2339Z" fill="white"/>
</g>
</g>
</g>
</g>
<mask id="mask16_5001_18431" style="mask-type:luminance" maskUnits="userSpaceOnUse" x="36" y="0" width="68" height="46">
<path d="M36.8347 0H103.139V45.7446H36.8347V0Z" fill="white"/>
</mask>
<g mask="url(#mask16_5001_18431)">
<mask id="mask17_5001_18431" style="mask-type:luminance" maskUnits="userSpaceOnUse" x="33" y="-11" width="76" height="73">
<path d="M54.4989 -10.0588L108.869 12.7954L88.2532 61.8367L33.8833 38.9805L54.4989 -10.0588Z" fill="white"/>
</mask>
<g mask="url(#mask17_5001_18431)">
<mask id="mask18_5001_18431" style="mask-type:luminance" maskUnits="userSpaceOnUse" x="33" y="-11" width="76" height="73">
<path d="M54.4989 -10.0588L108.869 12.7954L88.2532 61.8367L33.8833 38.9805L54.4989 -10.0588Z" fill="white"/>
</mask>
<g mask="url(#mask18_5001_18431)">
<mask id="mask19_5001_18431" style="mask-type:luminance" maskUnits="userSpaceOnUse" x="33" y="-11" width="76" height="73">
<path d="M54.4989 -10.0588L108.869 12.7954L88.2532 61.8367L33.8833 38.9805L54.4989 -10.0588Z" fill="white"/>
</mask>
<g mask="url(#mask19_5001_18431)">
<path d="M92.3048 13.9258C92.3891 13.8174 92.4674 13.6768 92.608 13.6266C92.7626 13.5724 92.9131 13.5443 93.0778 13.5403C93.3448 13.5323 93.6942 13.5504 93.915 13.721C94.0094 13.7933 94.0033 13.98 93.8728 14.0162C93.6359 14.0804 93.387 14.0141 93.144 14.0342C93.0276 14.0423 92.9111 14.0543 92.7987 14.0804C92.6883 14.1065 92.5638 14.0904 92.4574 14.1266C92.3349 14.1687 92.2225 14.0322 92.3048 13.9258ZM85.6652 9.53485C85.7575 9.53084 85.8438 9.5208 85.9322 9.49068C86.0105 9.46257 86.0828 9.42844 86.1591 9.39632C86.2554 9.35616 86.2494 9.1835 86.131 9.18149C86.0366 9.17948 85.9462 9.17346 85.8519 9.18751C85.7435 9.20157 85.6571 9.24975 85.5748 9.314C85.4704 9.39431 85.5447 9.54288 85.6652 9.53485ZM83.6915 7.79413C83.9847 7.68772 84.4384 7.44479 84.4505 7.08941C84.4525 7.00308 84.34 6.96895 84.2999 7.04926C84.2818 7.0854 84.2136 7.11351 84.1774 7.13358C84.0951 7.18177 84.0188 7.242 83.9385 7.29621C83.7919 7.39459 83.6554 7.52108 83.5811 7.68371C83.551 7.75398 83.6253 7.81823 83.6915 7.79413ZM89.9256 12.9099C89.9577 12.8878 89.9999 12.8717 90.034 12.8476C90.0762 12.8195 90.1123 12.7673 90.1445 12.7272C90.2147 12.6388 90.2589 12.5324 90.293 12.428C90.3492 12.2634 90.1304 12.175 90.0461 12.3256C90.0059 12.3979 89.9557 12.4722 89.9095 12.5425C89.8855 12.5766 89.8674 12.6147 89.8473 12.6509C89.8172 12.7051 89.8172 12.7553 89.7971 12.8115C89.769 12.8878 89.8553 12.9621 89.9256 12.9099ZM94.7844 21.491C94.692 21.5653 94.6358 21.7058 94.5695 21.8042C94.4912 21.9247 94.421 22.0532 94.429 22.1997C94.431 22.26 94.4993 22.2861 94.5474 22.27C94.69 22.2218 94.7783 22.0913 94.8446 21.9668C94.9068 21.8524 95.0012 21.7139 94.9952 21.5793C94.9892 21.481 94.8566 21.4308 94.7844 21.491ZM92.9091 19.7884H92.9111C92.9192 19.7603 92.9151 19.7724 92.9091 19.7884ZM92.9051 19.7904C92.9433 19.7041 92.869 19.5877 92.7505 19.6278C92.6742 19.6519 92.6019 19.7382 92.5578 19.8025C92.5136 19.8707 92.4393 20.0173 92.5196 20.0936C92.5457 20.1338 92.5979 20.1458 92.6441 20.1197C92.5939 20.1478 92.6561 20.1257 92.6642 20.1237C92.6963 20.1097 92.7164 20.0916 92.7385 20.0675C92.7124 20.0956 92.7987 20.0053 92.7746 20.0354C92.7887 20.0173 92.7987 19.9992 92.8128 19.9812C92.8368 19.941 92.8589 19.9009 92.879 19.8607C92.883 19.8487 92.8911 19.8366 92.8951 19.8246C92.8991 19.8185 92.9051 19.8025 92.9091 19.7884C92.9091 19.7884 92.9071 19.7904 92.9051 19.7904ZM78.5838 4.60181C78.7244 4.55764 78.7886 4.33277 78.8368 4.2103C78.897 4.05169 78.6641 3.95331 78.5939 4.10791C78.5397 4.22837 78.4232 4.43115 78.4935 4.56366C78.5115 4.5978 78.5437 4.61185 78.5838 4.60181ZM78.3308 22.268C78.9593 22.2419 79.5536 21.9528 79.9832 21.497C80.2744 21.1918 80.7381 20.4309 80.2623 20.0796C80.2342 20.0595 80.182 20.0655 80.172 20.1036C80.1238 20.2703 80.1499 20.4349 80.0997 20.6016C80.0194 20.8726 79.7985 21.1015 79.5957 21.2862C79.2303 21.6175 78.7444 21.9166 78.2887 22.1074C78.1963 22.1455 78.2385 22.27 78.3308 22.268ZM76.5881 22.5672C76.7307 22.7358 76.9796 22.7137 77.1784 22.7097C77.329 22.7057 77.3109 22.4848 77.1784 22.4587C77.0158 22.4286 76.8451 22.3262 76.6785 22.3523C76.5841 22.3684 76.5199 22.4868 76.5881 22.5672ZM68.0451 13.448C67.9749 13.3998 67.8946 13.4801 67.9407 13.5524C68.1757 13.9158 68.019 14.3213 67.756 14.6205C67.5151 14.8935 67.1075 15.1003 66.9228 15.4075C66.8425 15.544 66.8867 15.7328 67.0674 15.7569C67.6215 15.8332 68.1556 15.1827 68.3463 14.7309C68.5531 14.245 68.4909 13.7592 68.0451 13.448ZM65.1781 16.3753C65.1058 16.3853 65.0576 16.4255 64.9954 16.4636C64.9372 16.4997 64.8609 16.5098 64.7966 16.5299C64.64 16.5821 64.4834 16.6222 64.4091 16.7788C64.391 16.815 64.3951 16.8732 64.4232 16.9033C64.4995 16.9836 64.5717 17.0177 64.6862 17.0097C64.7826 17.0037 64.8769 16.9796 64.9633 16.9334C65.1038 16.8591 65.3146 16.7045 65.3427 16.5379C65.3588 16.4455 65.2704 16.3632 65.1781 16.3753ZM60.486 20.9449C60.3976 20.9328 60.3514 21.0312 60.3956 21.0995C61.006 22.0351 59.3757 22.5471 59.1388 23.3401C59.1207 23.4004 59.1388 23.4586 59.199 23.4867C59.7933 23.7678 60.5342 22.8603 60.7992 22.4628C61.0983 22.013 61.2369 21.0513 60.486 20.9449ZM57.9261 22.8623C57.7735 22.8101 57.6149 22.794 57.4964 22.9065C57.4262 22.9627 57.39 23.049 57.3981 23.1394C57.4021 23.304 57.5225 23.4044 57.6671 23.4767C57.8297 23.559 58.0385 23.4586 58.1048 23.3C58.173 23.1394 58.0988 22.9205 57.9261 22.8623ZM78.8468 26.7051C78.8368 26.7272 78.8308 26.7533 78.8308 26.7794C78.8328 26.8196 78.8127 26.8557 78.7966 26.8878C78.7705 26.94 78.7866 26.9983 78.8167 27.0444C78.8187 27.0485 78.8207 27.0525 78.8248 27.0565C78.8468 27.0926 78.9051 27.1187 78.9492 27.1087C78.9533 27.1067 78.9573 27.1067 78.9613 27.1047C79.0336 27.0866 79.0838 27.0464 79.0978 26.9702C79.1099 26.8939 79.1119 26.8095 79.0858 26.7352C79.0677 26.6871 79.0416 26.665 78.9974 26.6389C78.9874 26.6369 78.9814 26.6349 78.9753 26.6329C78.9633 26.6248 78.9492 26.6168 78.9352 26.6108C78.891 26.5907 78.8348 26.6308 78.8448 26.681C78.8468 26.6891 78.8468 26.6971 78.8468 26.7051ZM63.2647 36.5933C63.2245 36.523 63.1141 36.523 63.1001 36.6134C62.9756 37.4827 63.1964 38.4003 63.2426 39.2696C63.2808 39.9322 63.2547 40.5867 63.076 41.2292C62.9635 41.6408 62.7748 41.9841 62.6985 42.4097C62.6885 42.472 62.7567 42.5162 62.8109 42.4961C63.7385 42.1467 63.849 40.9642 63.8991 40.0988C63.9634 38.9805 63.8228 37.5891 63.2647 36.5933ZM61.9014 43.0763C61.7569 43.1406 61.5963 43.2289 61.5159 43.3674C61.4979 43.3956 61.52 43.4478 61.5521 43.4558C61.7227 43.502 61.9576 43.4377 62.0641 43.2932C62.1464 43.1847 62.0339 43.0181 61.9014 43.0763ZM54.4185 30.8411C54.3824 30.7949 54.2941 30.7949 54.274 30.8592C54.1073 31.3972 54.0953 32.0297 53.9648 32.5898C53.7881 33.3468 53.4307 34.0796 53.4307 34.8666C53.4307 34.955 53.5231 34.9971 53.5873 34.9329C54.1174 34.3908 54.2539 33.5797 54.4105 32.8649C54.525 32.3489 54.788 31.3129 54.4185 30.8411ZM53.0212 35.6055C52.9649 35.734 52.8907 35.8464 52.7842 35.9368C52.6999 36.009 52.5754 36.0512 52.5513 36.1697C52.5473 36.1917 52.5594 36.2239 52.5794 36.2359C52.714 36.3182 52.8645 36.2058 52.969 36.1175C53.0995 36.007 53.1918 35.8625 53.2621 35.7079C53.3303 35.5533 53.0874 35.4529 53.0212 35.6055ZM43.5466 32.1642C43.5887 32.0759 43.4542 32.0257 43.408 32.108C42.8439 33.0878 42.2536 34.0414 41.9163 35.1276C41.6613 35.9488 41.6332 36.9085 41.4947 37.7558C41.4726 37.8863 41.6412 37.9887 41.7436 37.9024C42.4263 37.3342 42.4202 36.6736 42.4363 35.8283C42.4604 34.5032 42.9764 33.3407 43.5466 32.1642ZM40.8482 38.5368C40.812 38.591 40.7638 38.6512 40.7116 38.6914C40.6875 38.7095 40.6554 38.7175 40.6273 38.7316C40.5972 38.7476 40.5631 38.7737 40.5329 38.7858C40.4888 38.8038 40.4787 38.8661 40.5169 38.8962C40.5691 38.9343 40.5952 38.9584 40.6594 38.9725C40.7237 38.9845 40.794 38.9624 40.8502 38.9363C40.9847 38.8741 41.0449 38.7697 41.0791 38.6332C41.1112 38.5087 40.9164 38.4344 40.8482 38.5368ZM73.8877 34.0916C72.9099 33.931 71.9382 34.0776 70.9604 34.1619C69.9585 34.2462 68.9446 34.172 67.9488 34.2723C67.8765 34.2804 67.8685 34.3808 67.9307 34.4089C68.778 34.7863 69.822 34.7201 70.7295 34.692C71.7996 34.6578 72.8919 34.5996 73.9058 34.2402C73.9841 34.2141 73.962 34.1037 73.8877 34.0916ZM76.046 33.9631C75.8914 33.7985 75.6545 33.7845 75.4558 33.8788C75.3654 33.921 75.255 33.9852 75.2188 34.0796C75.2148 34.0816 75.2128 34.0836 75.2108 34.0856C75.1325 34.1358 75.1847 34.2543 75.267 34.2543C75.2831 34.2663 75.3012 34.2784 75.3212 34.2864C75.3754 34.3045 75.4297 34.3225 75.4839 34.3406C75.6565 34.3948 75.8352 34.4129 75.9958 34.3205C76.1063 34.2543 76.1344 34.0575 76.046 33.9631ZM87.1549 30.8612C86.7032 30.6704 86.41 31.3691 86.8618 31.5579C87.3135 31.7486 87.6067 31.0519 87.1549 30.8612ZM90.6625 31.3551C90.2709 31.1925 90.018 31.7948 90.4095 31.9574C90.799 32.122 91.052 31.5197 90.6625 31.3551ZM78.0297 30.6363C77.8651 30.568 77.6723 30.6463 77.604 30.809C77.5358 30.9716 77.6161 31.1643 77.7787 31.2326C77.9413 31.3009 78.1341 31.2226 78.2024 31.0599C78.2706 30.8973 78.1923 30.7046 78.0297 30.6363ZM80.7642 32.8649C80.3747 32.7003 80.1218 33.3026 80.5113 33.4672C80.9028 33.6319 81.1558 33.0295 80.7642 32.8649ZM95.6597 19.5856C95.9007 19.688 96.0573 19.3146 95.8163 19.2142C95.5734 19.1118 95.4168 19.4853 95.6597 19.5856ZM90.7628 17.341C92.2486 15.9054 93.8829 15.2108 95.9589 15.4055C96.0653 15.4156 96.1175 15.2549 96.0091 15.2188C93.8949 14.5141 92.0337 15.7468 90.6825 17.2587C90.6384 17.3069 90.7147 17.3872 90.7628 17.341ZM81.9749 8.83214C82.4206 7.51104 82.9507 6.15581 84.3501 5.5836C84.4143 5.55549 84.3742 5.46514 84.3099 5.48321C82.9306 5.88075 81.9046 7.37652 81.7601 8.77392C81.746 8.89639 81.9328 8.95662 81.9749 8.83214ZM83.6976 14.2069C83.6915 14.2651 83.7839 14.2932 83.8 14.235C84.33 12.4782 85.5768 11.4402 86.7273 10.1071C86.7714 10.0549 86.6992 9.9886 86.6449 10.0247C85.2114 11.0186 83.9204 12.426 83.6976 14.2069ZM76.7126 7.61544C76.7487 6.75412 76.8411 5.98716 77.1162 5.15997C77.3069 4.58374 77.596 4.0296 77.7305 3.43732C77.7406 3.39114 77.6743 3.36705 77.6482 3.40118C76.8371 4.45725 76.1826 6.2823 76.4395 7.61544C76.4677 7.76 76.7046 7.77807 76.7126 7.61544ZM71.892 5.32661C71.9201 5.3768 72.0125 5.36476 71.9984 5.2985C71.7454 4.19825 72.145 2.66233 73.2071 2.11019C73.2292 2.09614 73.2231 2.05599 73.193 2.06201C72.0225 2.27081 71.3579 4.36691 71.892 5.32661ZM84.2095 21.8986C84.4224 21.9889 84.6753 21.8865 84.7637 21.6737C84.852 21.4629 84.7496 21.2099 84.5368 21.1216C84.324 21.0312 84.071 21.1336 83.9827 21.3464C83.8923 21.5573 83.9967 21.8082 84.2095 21.8986ZM73.185 25.127C72.7593 24.9483 72.2554 25.1531 72.0767 25.5768C71.898 26.0004 72.1048 26.5044 72.5305 26.683C72.9561 26.8617 73.4621 26.659 73.6387 26.2333C73.8174 25.8097 73.6106 25.3077 73.185 25.127ZM71.8358 15.277C72.0667 15.3734 72.3417 15.263 72.4401 15.0321V15.0301C72.5365 14.7992 72.424 14.5261 72.1932 14.4277C71.9603 14.3294 71.6852 14.4418 71.5868 14.6727C71.4904 14.9036 71.6029 15.1786 71.8358 15.277ZM68.9446 7.98487C69.2518 8.11537 69.6152 7.9668 69.7437 7.66363C69.8702 7.35845 69.7216 6.99505 69.4164 6.86655C69.1093 6.73806 68.7459 6.88462 68.6174 7.1898C68.4909 7.49498 68.6394 7.85637 68.9446 7.98487ZM48.0339 22.019C49.0579 22.4487 49.7224 20.8686 48.6985 20.4369C47.6725 20.0073 47.0079 21.5874 48.0339 22.019ZM52.3385 25.5989C51.4973 25.2455 50.9532 26.5425 51.7924 26.8959C52.6337 27.2492 53.1778 25.9522 52.3385 25.5989ZM60.1366 26.2213C60.0222 26.0707 59.7973 25.9542 59.6046 25.9984C59.5985 25.9984 59.5945 26.0004 59.5905 26.0004C59.3275 26.0606 59.1327 26.2233 59.0906 26.5003C59.0785 26.5746 59.0846 26.6509 59.0866 26.7252C59.0906 26.9099 59.2552 27.0886 59.4178 27.1569C59.5785 27.2251 59.8194 27.2171 59.9559 27.0906C59.976 27.0725 59.9941 27.0545 60.0182 27.0404C60.1487 26.9561 60.231 26.7874 60.247 26.6369C60.2611 26.4883 60.227 26.3437 60.1366 26.2213ZM64.1702 19.8948C63.5217 19.6218 63.1021 20.6237 63.7506 20.8967C64.3991 21.1678 64.8207 20.1679 64.1702 19.8948ZM70.5428 24.2456C70.4826 24.2376 70.4243 24.2416 70.3641 24.2497C70.3581 24.2497 70.3521 24.2497 70.346 24.2517C70.1232 24.2336 69.9164 24.3721 69.8863 24.603C69.8602 24.8038 70.0168 25.0608 70.2416 25.0628C70.33 25.0628 70.4123 25.0648 70.4966 25.0467C70.7416 25.0005 70.8901 24.8399 70.8841 24.5849C70.8801 24.4123 70.7014 24.2657 70.5428 24.2456ZM43.4924 29.9557C43.5406 29.7228 43.3739 29.4778 43.1651 29.3895C42.9583 29.3032 42.6652 29.3554 42.5327 29.5521C42.5206 29.5722 42.5066 29.5903 42.4945 29.6103C42.4122 29.6927 42.356 29.7971 42.348 29.9215C42.348 29.9256 42.348 29.9296 42.3459 29.9336C42.3219 30.052 42.35 30.1705 42.4102 30.2729C42.4182 30.287 42.4303 30.301 42.4403 30.3151C42.4463 30.3271 42.4524 30.3371 42.4604 30.3472C42.4885 30.3833 42.5206 30.4175 42.5588 30.4476C42.5969 30.4777 42.6431 30.5018 42.6913 30.5199C42.7375 30.5399 42.7856 30.558 42.8358 30.564C42.884 30.57 42.9302 30.568 42.9744 30.564C42.9864 30.562 42.9985 30.558 43.0125 30.556C43.0286 30.554 43.0467 30.552 43.0627 30.548C43.1772 30.5178 43.2816 30.4556 43.3498 30.3552C43.3518 30.3512 43.3538 30.3492 43.3579 30.3472C43.4402 30.2528 43.4763 30.1404 43.4783 30.0239C43.4823 30.0019 43.4863 29.9778 43.4924 29.9557ZM70.9383 32.4854C71.2616 32.62 71.643 32.4654 71.7776 32.1461C71.9121 31.8249 71.7555 31.4454 71.4342 31.3089C71.111 31.1744 70.7295 31.329 70.595 31.6482C70.4605 31.9694 70.6171 32.3509 70.9383 32.4854ZM85.0789 32.2365C85.0488 32.2184 85.0167 32.2003 84.9845 32.1843C84.8601 32.0297 84.6452 31.9594 84.4445 32.0357C84.4324 32.0397 84.4204 32.0437 84.4083 32.0478C84.3039 32.0819 84.2156 32.1803 84.1734 32.2786C84.1092 32.4312 84.1493 32.5658 84.2276 32.7023C84.2336 32.7163 84.2417 32.7284 84.2497 32.7404C84.3722 32.9332 84.6191 32.9633 84.8099 32.879C84.854 32.8749 84.8962 32.8729 84.9384 32.8689C85.0448 32.8609 85.1191 32.8268 85.2054 32.7685C85.2696 32.7244 85.3198 32.622 85.2998 32.5417C85.2656 32.4011 85.2114 32.3128 85.0789 32.2365ZM97.1134 27.8134C96.6315 27.6126 96.3203 28.3535 96.8001 28.5563C97.282 28.7591 97.5932 28.0162 97.1134 27.8134ZM95.2682 30.1765C94.6197 29.9055 94.2001 30.9053 94.8486 31.1784C95.4971 31.4515 95.9167 30.4496 95.2682 30.1765ZM99.6411 27.6026C99.4283 27.5745 99.2295 27.7271 99.2014 27.9379C99.1733 28.1527 99.3219 28.3274 99.5247 28.3736C99.6993 28.4137 99.8861 28.3033 99.9523 28.1427C100.053 27.9078 99.8941 27.6347 99.6411 27.6026ZM100.966 30.034C99.6331 32.0217 97.9104 33.1841 95.7621 34.0133C95.728 34.0937 95.6597 34.1639 95.5533 34.2061C94.437 34.6337 93.0416 34.6177 91.8691 34.7221C89.5562 34.9309 87.2392 35.0895 84.9243 35.2361C79.4994 35.5794 74.0684 35.8785 68.6354 36.0934C67.4448 36.1375 66.2522 36.1596 65.0596 36.1636C64.9974 37.2217 65.0476 38.2979 65.0516 39.372C65.0616 41.2593 64.8046 43.4718 63.1623 44.6865C62.319 45.3089 60.7691 46.1783 59.8836 45.1222C59.1287 44.2187 59.197 42.7892 59.2552 41.693C59.3375 40.1289 59.5222 38.7175 59.3054 37.1454C59.2592 36.8021 59.2151 36.4588 59.189 36.1175C58.1128 36.0994 57.0326 36.0833 55.9585 36.0773C55.7115 36.0753 55.4666 36.0753 55.2196 36.0773C55.0952 36.4969 54.9165 36.9025 54.6635 37.282C53.9869 38.2979 52.8264 38.4344 51.7322 38.0047C50.6741 37.5871 50.0035 36.9406 49.6983 36.0693C48.9575 36.0452 48.2186 36.005 47.4798 35.9307C46.249 35.8103 45.0163 35.6476 43.7835 35.7019C43.7233 35.9227 43.6711 36.1496 43.6289 36.3865C43.3418 38.0088 43.127 40.2093 41.3099 40.9059C39.8302 41.4741 38.0072 40.6108 37.439 39.1231C36.7684 37.3683 37.4049 35.5111 37.3366 33.7062C37.2944 32.628 37.1619 31.4414 37.5454 30.4074C37.8646 29.5481 38.5975 28.9659 39.0673 28.225C39.0512 28.1527 39.0593 28.0704 39.1095 27.9841C39.6977 26.9541 39.8965 25.9442 40.7658 25.0688C41.1654 24.6632 41.5649 24.2517 41.9705 23.8521C41.9866 23.834 42.0448 23.7738 42.0588 23.7578C42.4242 23.3582 42.7836 22.9587 43.1531 22.5631C44.8376 20.7662 46.6124 19.0516 48.4656 17.4293C54.806 11.8759 62.0058 7.28617 69.8381 4.11192C69.5751 3.17029 69.8381 2.22664 70.5488 1.48378C72.0366 -0.0682139 75.4176 -0.383431 76.546 1.71065C77.3531 1.14647 78.62 1.05412 79.4733 1.17057C80.6137 1.33119 83.039 1.93351 83.5289 3.22048C83.6092 3.20442 83.6875 3.19036 83.7618 3.18233C84.8801 3.07994 86.0045 3.55377 86.9662 4.0818C88.1206 4.71625 89.245 5.45912 90.1665 6.40477C90.801 7.05729 91.4977 8.29406 91.2347 9.25578C92.8168 9.28188 94.4109 10.1512 95.6276 11.2113C96.5873 12.0486 97.4888 13.0424 98.0229 14.2089C98.4204 15.0803 99.362 16.9635 98.2517 17.6743C99.4263 18.2465 100.444 19.2002 101.115 20.2763C101.787 21.3525 102.245 22.517 102.568 23.7417C102.781 24.5488 103.197 26.2273 102.205 26.665C102.173 26.679 102.139 26.6851 102.105 26.6851C102.177 27.7913 101.687 28.9598 100.966 30.034ZM70.7215 3.94729C70.7215 3.94929 70.7215 3.9513 70.7215 3.9513C70.8219 4.0296 70.8801 4.15609 70.8801 4.28258C71.2294 4.91502 71.8057 5.45511 72.4843 5.70808C72.7212 5.79642 72.9722 5.84461 73.2231 5.88276C72.7975 4.87687 73.201 3.4855 73.9801 2.76874C74.0343 2.71854 74.1246 2.79283 74.0945 2.85708C73.6046 3.86095 73.3637 4.73432 73.7532 5.82252C73.7733 5.87673 73.7753 5.92492 73.7672 5.96909C73.972 6.00724 74.1748 6.05342 74.3635 6.12971C74.4639 5.61372 74.7229 5.12784 75.1767 4.72228C75.2048 4.69818 75.2449 4.73432 75.2309 4.76645C74.5322 6.31041 75.0863 7.91259 76.3472 9.02288C76.7568 9.38226 77.2366 9.72157 77.7546 9.94243C77.4053 8.72171 77.6884 7.1898 78.4473 6.2562C78.4614 6.23813 78.4995 6.24415 78.4995 6.27025C78.5115 6.87057 78.2686 7.47089 78.2084 8.0692C78.1281 8.83616 78.1903 9.51879 78.5577 10.1733C78.9131 10.2175 79.2725 10.1733 79.6259 10.1713C79.7463 9.52481 80.0615 8.91647 80.6056 8.39847C80.6799 8.32619 80.7883 8.4326 80.7562 8.51692C80.5253 9.10921 80.4089 9.7296 80.4069 10.344C80.4289 10.3922 80.435 10.4484 80.4129 10.4925L80.4089 10.5006C80.437 11.4282 80.7341 12.3397 81.3284 13.1207C81.5613 13.4279 81.8203 13.715 82.0994 13.974C82.1416 13.3917 82.3243 12.7734 82.4467 12.4802C82.8904 11.4061 83.6614 10.1171 84.8319 9.72157C84.9183 9.69146 85.0006 9.81393 84.9143 9.86814C84.0068 10.4484 83.3221 11.4683 82.9386 12.4601C82.7298 13.0022 82.525 13.6327 82.6114 14.2229C82.6234 14.2952 82.6415 14.3655 82.6636 14.4358C82.8262 14.5502 82.9969 14.6566 83.1735 14.753C83.6815 15.0281 84.2959 15.1204 84.7496 15.4477C84.9885 14.5683 85.6611 13.8555 86.916 13.5744C86.9622 13.5644 86.9943 13.6387 86.9521 13.6648C85.4262 14.5442 85.113 16.1343 85.884 17.6803C86.2233 18.3589 86.7132 19.1038 87.3537 19.5375C87.442 19.5977 87.5344 19.6499 87.6247 19.6981C87.3958 18.9532 87.6408 17.9935 87.9841 17.339C88.6166 16.1323 89.9156 15.1686 91.0941 14.5382C91.1523 14.506 91.2106 14.5924 91.1704 14.6406C90.4878 15.4417 89.5602 16.0219 88.9518 16.8872C88.5001 17.5317 88.1126 18.3469 88.2351 19.164C88.2813 19.4612 88.3475 19.7443 88.4017 20.0314C88.6567 20.1297 88.9077 20.2342 89.1446 20.3767C89.1506 20.3787 89.1526 20.3827 89.1546 20.3847C89.5261 19.8206 90.1906 19.3748 90.6665 19.0295C90.6926 19.0114 90.7207 19.0415 90.7046 19.0676C90.1605 19.8989 89.5823 20.708 89.7911 21.752C89.9356 22.4788 90.2489 23.1795 90.6283 23.818C90.6203 22.6856 91.3852 21.2702 91.9795 20.6638C92.0157 20.6257 92.0819 20.6477 92.0759 20.704C92.0056 21.4529 91.588 22.1335 91.4274 22.8643C91.2828 23.5269 91.4475 24.2015 91.3069 24.8399C91.5258 25.1431 91.7527 25.4382 91.9876 25.7314C92.2506 26.0627 92.6461 26.3558 92.9694 26.677C93.3046 25.5567 94.5394 24.1653 95.0173 23.832C96.7861 22.6013 99.2074 23.0229 100.834 24.3601C101.33 24.7677 101.665 25.2154 101.866 25.6832C101.896 25.5266 101.92 25.364 101.906 25.1812C101.86 24.593 101.725 24.0368 101.552 23.4727C101.498 23.296 101.44 23.1193 101.38 22.9446C101.241 22.784 101.099 22.6234 100.932 22.4868C100.474 22.1094 99.9824 21.7721 99.4383 21.5271C98.2959 21.0132 97.013 20.6879 95.7541 20.724C95.5734 20.7281 95.5312 20.4691 95.716 20.441C97.0652 20.2422 98.4184 20.4169 99.6652 20.9931C99.9945 21.1437 100.418 21.3505 100.834 21.6034C100.627 21.1818 100.388 20.7762 100.101 20.4028C98.7376 18.6239 96.8905 18.1541 94.9129 17.355C94.8406 17.3269 94.8647 17.2346 94.9309 17.2185C95.8605 17.0097 96.7961 17.1101 97.6655 17.4273C97.6635 17.4173 97.6655 17.4092 97.6655 17.3992C97.7277 16.6443 97.8883 16.1504 97.5671 15.3975C97.3643 14.9136 97.1495 14.4137 96.8624 13.972C96.6877 13.7049 96.501 13.448 96.3022 13.199C95.4871 12.8818 94.9269 12.1128 94.0013 11.9723C93.1501 11.8438 92.2747 11.906 91.4194 11.9582C91.2266 11.9703 91.1845 11.6852 91.3792 11.6591C92.4132 11.5185 93.4091 11.1872 94.4511 11.5004C94.5013 11.5165 94.5495 11.5346 94.5996 11.5526C93.0055 10.3661 90.8773 9.47261 88.9077 10.0669C88.8474 10.085 88.7912 10.0067 88.8495 9.96652C89.3675 9.61115 89.9095 9.40234 90.4617 9.30999C90.3533 9.01685 90.3553 8.72573 90.2709 8.38642C90.1204 7.78209 89.8272 7.30826 89.3715 6.88663C89.1105 6.64369 88.8374 6.41481 88.5563 6.19396C88.5222 6.1779 88.4881 6.16384 88.4539 6.1538C88.0965 6.03133 87.7191 5.95905 87.3416 5.93094C86.922 5.90283 86.3839 5.88075 85.9844 6.0494C85.7535 6.14778 85.5949 6.37666 85.364 6.44493C85.3419 6.45095 85.3218 6.44292 85.3118 6.42083C84.9845 5.70206 86.8076 5.40692 87.181 5.39889C87.2493 5.39889 87.3356 5.39889 87.432 5.4009C87.3537 5.3507 87.2774 5.2985 87.1971 5.25032C86.392 4.76645 85.4664 4.24845 84.5268 4.09787C83.6474 3.95732 82.2239 4.08984 81.738 4.93711C81.6978 5.00939 81.5894 4.9873 81.5934 4.89896C81.6396 4.34884 82.1215 3.86296 82.6776 3.55176C82.4387 3.40118 82.2098 3.21446 81.9789 3.03778C81.4409 3.16025 80.957 3.48952 80.4129 3.71639C80.3185 3.75454 80.2442 3.64211 80.2984 3.56581C80.5394 3.22851 80.957 2.88719 81.4208 2.66835C81.3806 2.64827 81.3425 2.62619 81.3023 2.60812C80.7482 2.36116 80.1679 2.18448 79.5656 2.10016C78.1863 1.9054 77.0479 1.99174 75.9216 2.82495C75.8774 2.85909 75.8011 2.82094 75.8131 2.76271C75.8934 2.39529 76.0822 2.10216 76.3392 1.87328C74.8976 0.80315 72.8617 0.676661 71.4162 1.91544C70.8158 2.43143 70.4464 3.18033 70.7215 3.94729ZM49.5257 35.2662C49.4996 34.9931 49.4996 34.702 49.5277 34.3948C49.614 33.395 49.9654 32.2345 49.618 31.2547C49.1843 30.036 47.8472 29.0502 46.6887 30.1565C45.8675 30.9395 45.5122 32.0417 44.9701 33.0095C44.6067 33.656 44.2854 34.2683 44.0385 34.9188C44.8837 34.8967 45.737 34.9931 46.5783 35.0754C47.5681 35.1718 48.5459 35.23 49.5257 35.2662ZM59.1609 35.3545C59.1669 34.8486 59.2271 34.3466 59.3817 33.8487C59.6568 32.9633 60.5643 31.4314 60.1687 30.4998C59.6969 29.3875 57.1631 29.1967 56.2737 30.1042C55.4786 31.6884 55.7095 33.5957 55.4003 35.3184C56.6532 35.3244 57.906 35.3405 59.1609 35.3545ZM64.3288 35.3766C64.3388 35.3083 64.3489 35.2401 64.3589 35.1718C64.6199 33.5154 65.1821 31.7767 66.5775 30.7166C67.9729 29.6565 69.7618 29.3072 71.4985 29.1847C71.5306 29.1727 71.5708 29.1646 71.6109 29.1626C73.4119 29.0723 75.2148 29.1847 77.0158 29.2148C78.9553 29.251 80.8526 29.0321 82.786 28.9578C84.7757 28.8815 86.7654 28.9237 88.7531 28.99C90.0802 29.0321 92.4554 29.4979 93.4311 28.3194V28.3174C93.4352 28.223 93.4271 28.1065 93.4111 27.9881C93.3528 27.978 93.2946 27.956 93.2344 27.9158C93.1762 27.8736 93.126 27.8275 93.0818 27.7793C92.2606 27.7211 91.5981 26.6971 91.1283 26.1108C90.5199 25.3499 89.9477 24.5388 89.52 23.6614C89.1305 22.8663 88.7852 21.9789 88.8876 21.0794C88.8896 21.0654 88.8896 21.0553 88.8936 21.0413C88.8836 21.0453 88.8735 21.0433 88.8635 21.0433C86.5686 20.977 84.5669 18.2726 84.6512 16.1102C83.8883 16.3712 82.8382 15.6545 82.2419 15.2429C81.4047 14.6626 80.7221 13.9298 80.2121 13.0484C79.8507 12.43 79.6279 11.7574 79.5777 11.0949C79.0577 11.2113 78.4353 11.1069 77.9775 10.9644C76.9857 10.6512 76.0641 10.103 75.3754 9.314C74.7872 8.6394 74.3675 7.74394 74.3153 6.86455C73.4661 7.13961 72.3176 6.67381 71.5969 6.27025C71.0126 5.94299 70.4725 5.41094 70.1332 4.81463C62.4315 7.93668 55.322 12.4401 49.084 17.9032C47.2268 19.5294 45.4399 21.232 43.7574 23.037C43.388 23.4325 43.0286 23.832 42.6632 24.2316C42.3198 24.603 41.9564 24.9504 41.6011 25.3077C41.1052 25.8077 40.6113 26.3156 40.3663 26.9902C40.286 27.2071 40.2117 27.4179 40.1254 27.6267V27.6287C40.1354 27.6869 40.1314 27.7492 40.1133 27.8134C39.766 28.9618 38.5814 29.5662 38.2542 30.7046C37.9269 31.8349 38.0975 33.0175 38.1056 34.176C38.1196 35.8384 37.1961 38.4525 38.7701 39.6973C39.7158 40.4442 40.9747 40.6249 41.8018 39.6029C42.5266 38.7095 42.623 37.6795 42.8158 36.5833C42.872 36.2721 42.9402 35.9649 43.0226 35.6617C43.0226 35.6597 43.0226 35.6597 43.0246 35.6577C43.4884 33.9049 44.3577 32.2606 45.2993 30.7126C46.2089 29.2208 47.9395 28.219 49.4795 29.5742C50.9471 30.8732 50.395 32.8248 50.2886 34.4932C50.2464 35.1457 50.3127 35.74 50.5837 36.2239C50.7946 36.6013 51.1278 36.9145 51.6318 37.1354C52.204 37.3864 53.0553 37.7217 53.6295 37.286C54.023 36.9848 54.268 36.5351 54.4266 36.0331C54.6735 35.2421 54.7077 34.3165 54.7679 33.6158C54.8683 32.5015 54.9265 31.4414 55.2979 30.4215C55.2839 30.3572 55.2859 30.2849 55.312 30.2087C55.3883 29.9878 55.5088 29.793 55.6634 29.6244C55.6634 29.6244 55.6654 29.6224 55.6674 29.6204C55.6975 29.5742 55.7336 29.5401 55.7738 29.514L55.7758 29.512C56.0127 29.2951 56.3058 29.1365 56.617 29.0401C57.8116 28.6727 59.5785 28.6607 60.5141 29.6465C61.8412 31.0479 60.1186 33.2484 59.9599 34.7642C59.9077 35.2762 59.9258 35.7862 59.976 36.2921C60.0563 37.1354 60.2149 37.9746 60.241 38.8259C60.2571 39.3158 60.1768 39.8117 60.1326 40.2976C60.0141 41.5283 59.707 43.1988 60.2932 44.3593C60.6406 45.0499 61.3493 44.8733 61.9336 44.5641C63.0519 43.9718 63.8249 42.998 64.0798 41.7492C64.5095 39.6411 64.0477 37.4908 64.3288 35.3766ZM101.38 26.406C101.374 26.3678 101.364 26.3297 101.352 26.2935C101.281 26.0305 101.151 25.7775 100.954 25.5406C99.9242 24.3139 97.7237 23.3522 96.1617 24.0529C95.3726 24.4083 94.7081 25.0387 94.2925 25.8016C94.2603 25.8579 94.174 26.0145 94.0716 26.2052C94.0796 26.2634 94.0776 26.3216 94.0596 26.3839C93.8909 26.9621 94.2423 27.7813 94.1881 28.4378C94.1921 28.49 94.184 28.5462 94.164 28.6004L94.16 28.6085C94.1158 28.8173 94.0174 29.008 93.8267 29.1586C93.7423 29.2269 93.654 29.2489 93.5697 29.2389C92.7465 29.8292 91.5981 29.8392 90.5821 29.8071C88.3435 29.7408 86.1008 29.6304 83.8622 29.6846C81.8524 29.7328 79.8628 29.9978 77.851 29.9858C76.03 29.9737 74.2069 29.8513 72.3879 29.8954C72.3819 29.8954 72.3739 29.8975 72.3658 29.8975C71.8117 29.9215 71.2676 29.9758 70.7195 30.044C68.7438 30.2849 66.704 30.9555 65.8045 32.885C65.425 33.7021 65.2263 34.5394 65.1239 35.3927C65.5314 35.3907 65.937 35.3886 66.3426 35.3826C71.2716 35.3264 76.2066 34.9871 81.1236 34.702C84.1814 34.5253 87.2392 34.3406 90.293 34.0916C91.3933 34.0013 92.4955 33.9089 93.5958 33.7784C93.909 33.7423 94.2563 33.7162 94.5856 33.666C94.6217 33.6278 94.6719 33.5957 94.7342 33.5736C96.6074 32.9372 98.4485 32.12 99.6793 30.5098C100.462 29.4899 101.683 27.8154 101.38 26.406ZM78.2827 16.0299C78.3329 16.0179 78.3911 16.0199 78.4533 16.05C78.5216 16.0821 78.5899 16.1142 78.6601 16.1484C78.6902 16.1564 78.7224 16.1665 78.7525 16.1765C78.7987 16.1885 78.8328 16.2146 78.8589 16.2407C80.0033 16.7788 81.3124 17.4735 81.746 18.7063C82.2098 20.0213 82.0492 21.3846 81.0333 22.4106C78.875 24.591 75.2168 24.611 72.5827 23.2398C70.3782 22.0953 68.6153 19.5636 70.5267 17.2988C72.4722 14.9959 75.6324 15.2469 78.2827 16.0299ZM71.0929 17.4775C69.3201 19.5776 70.8058 21.8885 73.0384 22.8543C75.257 23.814 78.365 24.1111 80.2904 22.3684C81.3565 21.4047 81.9548 19.8206 81.0353 18.5135C80.3968 17.602 79.4271 17.1081 78.4453 16.6483C76.1304 15.9075 72.8698 15.3734 71.0929 17.4775ZM86.916 23.1454C87.0164 23.1293 87.0927 23.1615 87.1449 23.2177C87.2533 23.2297 87.3537 23.302 87.3738 23.4425C87.4661 24.1031 87.2031 24.6914 86.912 25.2716C86.653 25.7936 86.4442 26.4762 86.0185 26.8979C85.2696 27.6347 84.2015 27.3657 83.5068 26.661C81.8243 24.9524 85.7314 23.3482 86.916 23.1454ZM83.7257 26.0305C83.9786 26.4923 84.7757 27.0464 85.3259 26.7533C85.6852 26.5626 85.87 26.1751 86.0386 25.8298C86.3458 25.1953 86.8437 24.4504 86.8437 23.7176C85.9282 23.9405 83.1675 25.0267 83.7257 26.0305ZM80.0093 26.3056C80.0696 26.3277 80.1198 26.3799 80.1438 26.4642C80.3928 27.3536 79.674 28.221 78.7485 28.229C77.9976 28.237 77.2788 27.8556 76.8752 27.2171C76.5299 26.671 76.6042 25.9402 77.2607 25.6772C78.1863 25.3017 79.3066 25.627 80.0093 26.3056ZM77.7466 26.0988C77.3029 26.1891 77.07 26.4602 77.3129 26.8898C77.5298 27.2733 77.9755 27.5986 78.4132 27.6648C78.9814 27.7512 79.8005 27.3998 79.6439 26.7132C79.146 26.2454 78.4312 25.9582 77.7466 26.0988ZM66.7542 27.0806C65.935 27.5504 64.8508 27.5725 64.0116 27.1207C63.2888 26.7352 63.074 25.9402 63.6944 25.3459C64.646 24.4324 66.19 24.1734 67.3926 24.6893C67.4227 24.6974 67.4549 24.7134 67.485 24.7355L67.491 24.7375C67.493 24.7416 67.497 24.7436 67.499 24.7436C68.4427 25.5025 67.5372 26.6288 66.7542 27.0806ZM67.1818 25.1913C66.2141 24.7817 64.9853 24.9524 64.1782 25.641C63.7144 26.0386 63.8269 26.4602 64.377 26.6971C64.9372 26.938 65.6338 26.9882 66.204 26.7453C66.6698 26.5465 67.8042 25.7334 67.1818 25.1913ZM62.4415 22.4607C62.2327 23.5871 61.3071 24.7014 60.2109 25.0648C59.0042 25.4663 57.7153 25.3499 56.5006 25.0287C54.8342 24.587 53.1316 24.2737 51.6378 23.3682C51.5615 23.3221 51.5274 23.2598 51.5214 23.1956C49.7385 21.5171 51.2403 18.911 53.2701 18.1842C54.6555 17.6903 56.1492 17.7606 57.5647 18.116C58.7874 18.4191 60.2189 18.7745 61.2268 19.5716C62.1524 20.3004 62.6604 21.2762 62.4415 22.4607ZM60.7128 19.8748C59.0183 18.7986 56.3299 18.0638 54.3423 18.4533C52.5011 18.8147 49.8911 21.1276 51.9972 22.8904C52.0353 22.9225 52.0615 22.9607 52.0775 22.9988C53.3906 23.7638 54.8904 24.0429 56.346 24.4263C57.2655 24.6713 58.2714 24.8921 59.2231 24.7456C61.6003 24.3802 63.072 21.3746 60.7128 19.8748ZM64.2445 18.2947C61.8854 18.4874 59.2131 17.5538 58.6589 14.9759C57.914 11.5145 61.8292 9.51277 64.7223 9.2096C64.8147 9.20157 64.889 9.23168 64.9392 9.28388C66.6136 9.35817 68.3804 9.98459 69.2538 11.5065C69.814 12.4842 70.1513 13.5905 69.7738 14.6968C69.0249 16.9073 66.4369 18.112 64.2445 18.2947ZM69.1072 14.8996C69.5008 14.0162 69.4626 13.0585 69.0129 12.1951C68.1295 10.4905 66.3867 9.78381 64.5336 9.81594C64.4975 9.81594 64.4633 9.80992 64.4332 9.79988C61.8271 10.2115 57.9923 12.2092 59.3496 15.3513C60.2029 17.3269 62.3231 17.9935 64.3469 17.7325C66.1197 17.5056 68.3282 16.6503 69.1072 14.8996ZM71.109 9.85408C71.2575 8.77592 72.3859 8.41654 73.3275 8.71569C73.3476 8.7177 73.3677 8.72573 73.3878 8.73376C73.4119 8.74179 73.4299 8.75183 73.448 8.76187C74.3977 9.19755 75.2429 10.4604 74.6948 11.4743C74.2591 12.2794 73.1669 12.2855 72.4562 11.8799C71.7695 11.4884 70.9905 10.7254 71.109 9.85408ZM71.7073 10.3139C71.896 10.7977 72.2976 11.2173 72.7754 11.4342C73.2292 11.635 74.0363 11.7594 74.2571 11.133C74.5282 10.3801 73.8496 9.51678 73.177 9.2357C72.4582 8.98272 71.3499 9.40234 71.7073 10.3139ZM77.0921 12.5324C77.5579 12.0506 78.3007 11.9301 78.9171 12.163C78.9553 12.1791 78.9874 12.1991 79.0115 12.2232C79.0717 12.2453 79.1259 12.2855 79.1641 12.3537C79.3668 12.7232 79.664 13.0585 79.6881 13.4961C79.7082 13.8174 79.4893 14.1667 79.2203 14.3334C78.6922 14.6586 77.7225 14.8112 77.2326 14.3113C76.7267 13.7933 76.546 13.0946 77.0921 12.5324ZM77.6281 13.9318C77.9895 14.1667 78.64 14.1306 78.9613 13.8435C79.3468 13.4961 78.9553 13.0324 78.7244 12.673C78.7183 12.669 78.7123 12.669 78.7063 12.6669C78.3168 12.5204 77.843 12.5826 77.5298 12.8657C77.1945 13.1709 77.2366 13.6728 77.6281 13.9318ZM48.07 27.1448C47.1023 27.5564 45.8234 27.5825 44.8918 27.0505C43.9662 26.5184 44.1569 25.5587 44.8858 24.9423C45.8675 24.1151 47.7307 23.3923 48.9775 24.0629C49.0277 24.0669 49.0819 24.087 49.1321 24.1332C49.1522 24.1513 49.1623 24.1714 49.1803 24.1894C49.2084 24.2075 49.2345 24.2256 49.2606 24.2476C49.3249 24.2978 49.355 24.3581 49.361 24.4203C49.9634 25.388 49.0398 26.7332 48.07 27.1448ZM48.8651 24.6371C47.8934 23.9485 46.1406 24.599 45.3254 25.2877C44.7713 25.7555 44.5444 26.3457 45.3495 26.673C46.0201 26.942 46.8574 26.9882 47.546 26.7593C48.2387 26.5284 49.5417 25.4202 48.8651 24.6371ZM54.4507 14.759C55.043 14.1928 56.0689 13.8355 56.8379 14.2491C56.862 14.2631 56.8821 14.2772 56.9001 14.2932C56.9543 14.3053 57.0065 14.3314 57.0507 14.3796C58.3477 15.7488 56.0007 17.4133 54.6735 16.7126C53.8785 16.2909 53.8343 15.3453 54.4507 14.759ZM55.0369 16.2809C55.8702 16.57 57.396 15.6545 56.6692 14.7691C56.6552 14.765 56.6411 14.759 56.6271 14.751C56.091 14.4639 55.3662 14.6867 54.9265 15.0642C54.5009 15.4276 54.3945 16.058 55.0369 16.2809ZM67.8926 22.2017C67.3384 22.529 66.5112 22.6475 65.933 22.3102C65.2504 21.9146 65.2102 20.9529 65.9089 20.5474C66.4972 20.206 67.6316 19.9912 68.0211 20.7301C68.5531 21.1838 68.517 21.8303 67.8926 22.2017ZM67.6356 21.1176C67.6356 21.1156 67.6336 21.1156 67.6316 21.1135C67.6235 21.1055 67.6135 21.0955 67.6055 21.0874C67.5954 21.0794 67.5894 21.0694 67.5814 21.0613C67.5814 21.0613 67.5814 21.0613 67.5814 21.0593C67.5673 21.0413 67.5553 21.0212 67.5492 21.0011C67.3465 20.5433 66.4008 20.8365 66.1257 21.0613C65.7704 21.3525 65.9832 21.7982 66.3767 21.9126C66.8144 22.0411 68.4186 21.7299 67.6356 21.1176Z" fill="#660C0C"/>
</g>
</g>
</g>
</g>
<path d="M31.9923 74.47C31.7293 74.47 31.4783 74.4338 31.2374 74.3656C30.9965 74.2973 30.7997 74.205 30.6511 74.0925L30.9081 73.5143C31.0527 73.6227 31.2213 73.707 31.4141 73.7713C31.6068 73.8315 31.7996 73.8596 31.9923 73.8596C32.2111 73.8596 32.3718 73.8275 32.4742 73.7633C32.5745 73.699 32.6267 73.6147 32.6267 73.5063C32.6267 73.432 32.5946 73.3677 32.5304 73.3135C32.4701 73.2613 32.3939 73.2212 32.2975 73.1931C32.2051 73.1609 32.0766 73.1268 31.912 73.0887C31.665 73.0304 31.4623 72.9722 31.3016 72.912C31.141 72.8477 31.0045 72.7514 30.8921 72.6229C30.7796 72.4903 30.7234 72.3157 30.7234 72.1008C30.7234 71.9081 30.7736 71.7354 30.876 71.5788C30.9764 71.4242 31.133 71.3018 31.3418 71.2094C31.5506 71.1191 31.8036 71.0729 32.1047 71.0729C32.3135 71.0729 32.5163 71.101 32.7151 71.1532C32.9179 71.2014 33.0946 71.2716 33.2451 71.362L33.0122 71.9402C32.7071 71.7696 32.4019 71.6832 32.0967 71.6832C31.8879 71.6832 31.7313 71.7194 31.6309 71.7876C31.5285 71.8579 31.4783 71.9483 31.4783 72.0607C31.4783 72.1731 31.5345 72.2574 31.647 72.3096C31.7634 72.3639 31.9441 72.4181 32.185 72.4703C32.436 72.5305 32.6428 72.5907 32.8034 72.655C32.9641 72.7152 33.1006 72.8076 33.213 72.9361C33.3254 73.0605 33.3817 73.2312 33.3817 73.4501C33.3817 73.6388 33.3275 73.8094 33.221 73.964C33.1186 74.1206 32.9641 74.2431 32.7552 74.3335C32.5464 74.4238 32.2915 74.47 31.9923 74.47Z" fill="#660C0C"/>
<path d="M37.7071 74.47C37.2353 74.47 36.8679 74.3416 36.6069 74.0846C36.3499 73.8236 36.2214 73.4501 36.2214 72.9682V71.1292H36.9843V72.9442C36.9843 73.5284 37.2273 73.8195 37.7151 73.8195C37.95 73.8195 38.1287 73.7513 38.2532 73.6107C38.3817 73.4662 38.446 73.2453 38.446 72.9442V71.1292H39.1928V72.9682C39.1928 73.4501 39.0603 73.8236 38.7993 74.0846C38.5423 74.3416 38.1769 74.47 37.7071 74.47Z" fill="#660C0C"/>
<path d="M44.7034 72.7032C44.8901 72.7675 45.0347 72.8699 45.1371 73.0084C45.2435 73.1429 45.2977 73.3116 45.2977 73.5144C45.2977 73.8035 45.1853 74.0263 44.9604 74.1809C44.7395 74.3375 44.4163 74.4138 43.9886 74.4138H42.2861V71.1292H43.8923C44.2938 71.1292 44.601 71.2075 44.8158 71.362C45.0287 71.5126 45.1371 71.7194 45.1371 71.9804C45.1371 72.1411 45.0969 72.2856 45.0166 72.4141C44.9403 72.5386 44.8359 72.635 44.7034 72.7032ZM43.041 71.6994V72.4784H43.8039C43.9907 72.4784 44.1332 72.4462 44.2296 72.382C44.3259 72.3137 44.3741 72.2133 44.3741 72.0848C44.3741 71.9563 44.3259 71.86 44.2296 71.7957C44.1332 71.7315 43.9907 71.6994 43.8039 71.6994H43.041ZM43.9324 73.8436C44.1292 73.8436 44.2798 73.8115 44.3822 73.7473C44.4826 73.679 44.5348 73.5766 44.5348 73.4421C44.5348 73.169 44.334 73.0325 43.9324 73.0325H43.041V73.8436H43.9324Z" fill="#660C0C"/>
<path d="M48.2189 71.1292H48.9819V74.4138H48.2189V71.1292Z" fill="#660C0C"/>
<path d="M54.1989 74.4138L53.5644 73.4983H52.8657V74.4138H52.1028V71.1292H53.5243C53.8174 71.1292 54.0724 71.1773 54.2872 71.2737C54.5 71.3701 54.6647 71.5106 54.7771 71.6913C54.8936 71.868 54.9538 72.0808 54.9538 72.3258C54.9538 72.5667 54.8936 72.7755 54.7771 72.9522C54.6586 73.1289 54.492 73.2654 54.2792 73.3618L55.018 74.4138H54.1989ZM54.1828 72.3258C54.1828 72.139 54.1226 71.9965 54.0061 71.9001C53.8877 71.7997 53.713 71.7475 53.4841 71.7475H52.8657V72.896H53.4841C53.713 72.896 53.8877 72.8458 54.0061 72.7434C54.1226 72.643 54.1828 72.5025 54.1828 72.3258Z" fill="#660C0C"/>
<path d="M64.1137 73.8035V74.4138H61.5679V71.1292H64.0495V71.7395H62.3228V72.4543H63.8487V73.0405H62.3228V73.8035H64.1137Z" fill="#660C0C"/>
<path d="M70.0475 74.4138V72.4462L69.0837 74.0685H68.7384L67.7747 72.4864V74.4138H67.0599V71.1292H67.6944L68.9231 73.169L70.1278 71.1292H70.7542L70.7622 74.4138H70.0475Z" fill="#660C0C"/>
<path d="M78.6407 74.47C78.3777 74.47 78.1267 74.4338 77.8858 74.3656C77.6448 74.2973 77.4481 74.205 77.2995 74.0925L77.5565 73.5143C77.701 73.6227 77.8697 73.707 78.0624 73.7713C78.2552 73.8315 78.4479 73.8596 78.6407 73.8596C78.8595 73.8596 79.0201 73.8275 79.1225 73.7633C79.2229 73.699 79.2751 73.6147 79.2751 73.5063C79.2751 73.432 79.243 73.3677 79.1788 73.3135C79.1185 73.2613 79.0422 73.2212 78.9459 73.1931C78.8535 73.1609 78.725 73.1268 78.5604 73.0887C78.3134 73.0304 78.1106 72.9722 77.95 72.912C77.7894 72.8477 77.6529 72.7514 77.5404 72.6229C77.428 72.4903 77.3718 72.3157 77.3718 72.1008C77.3718 71.9081 77.422 71.7354 77.5244 71.5788C77.6248 71.4242 77.7814 71.3018 77.9902 71.2094C78.199 71.1191 78.4519 71.0729 78.7531 71.0729C78.9619 71.0729 79.1647 71.101 79.3635 71.1532C79.5662 71.2014 79.7429 71.2716 79.8935 71.362L79.6606 71.9402C79.3554 71.7696 79.0503 71.6832 78.7451 71.6832C78.5363 71.6832 78.3797 71.7194 78.2793 71.7876C78.1769 71.8579 78.1267 71.9483 78.1267 72.0607C78.1267 72.1731 78.1829 72.2574 78.2953 72.3096C78.4118 72.3639 78.5925 72.4181 78.8334 72.4703C79.0844 72.5305 79.2912 72.5907 79.4518 72.655C79.6124 72.7152 79.749 72.8076 79.8614 72.9361C79.9738 73.0605 80.03 73.2312 80.03 73.4501C80.03 73.6388 79.9758 73.8094 79.8694 73.964C79.767 74.1206 79.6124 74.2431 79.4036 74.3335C79.1948 74.4238 78.9398 74.47 78.6407 74.47Z" fill="#660C0C"/>
<path d="M86.0581 71.1292L84.6366 74.4138H83.8817L82.4682 71.1292H83.2874L84.2832 73.4742L85.2951 71.1292H86.0581Z" fill="#660C0C"/>
<path d="M90.9622 72.7192H91.6528V74.0524C91.4762 74.1869 91.2694 74.2913 91.0344 74.3656C90.7975 74.4338 90.5626 74.47 90.3277 74.47C89.9844 74.47 89.6772 74.3977 89.4042 74.2532C89.1351 74.1086 88.9243 73.9078 88.7697 73.6508C88.6131 73.3898 88.5368 73.0967 88.5368 72.7754C88.5368 72.4502 88.6131 72.1571 88.7697 71.9001C88.9243 71.6431 89.1391 71.4423 89.4122 71.2977C89.6852 71.1492 89.9944 71.0729 90.3438 71.0729C90.6269 71.0729 90.8859 71.1211 91.1228 71.2174C91.3577 71.3138 91.5565 71.4564 91.7171 71.6431L91.2272 72.0928C90.9903 71.8479 90.7072 71.7234 90.3759 71.7234C90.1671 71.7234 89.9784 71.7676 89.8137 71.8519C89.6531 71.9382 89.5266 72.0607 89.4363 72.2213C89.3499 72.3819 89.3078 72.5666 89.3078 72.7754C89.3078 72.9802 89.3499 73.1609 89.4363 73.3216C89.5266 73.4782 89.6531 73.6006 89.8137 73.691C89.9784 73.7773 90.1631 73.8195 90.3679 73.8195C90.5867 73.8195 90.7855 73.7753 90.9622 73.683V72.7192Z" fill="#660C0C"/>
</svg>
